<mxfile host="app.diagrams.net" modified="2024-01-10T05:48:43.777Z" agent="Mozilla/5.0 (Windows NT 10.0; Win64; x64) AppleWebKit/537.36 (KHTML, like Gecko) Chrome/120.0.0.0 Safari/537.36" etag="m550pnwt8ea-QunsPC9E" version="22.1.18" type="github">
  <diagram name="Page-1" id="VQsHgmHpjilepcqTfe5d">
    <mxGraphModel dx="3080" dy="4556" grid="0" gridSize="10" guides="1" tooltips="1" connect="1" arrows="1" fold="1" page="0" pageScale="1" pageWidth="850" pageHeight="1100" math="0" shadow="0">
      <root>
        <mxCell id="0" />
        <mxCell id="1" parent="0" />
        <mxCell id="oji7Lh0gevjrnALUTzUG-9" value="" style="strokeWidth=2;html=1;shape=mxgraph.flowchart.annotation_1;align=left;pointerEvents=1;" parent="1" vertex="1">
          <mxGeometry x="-1330" y="-3661" width="50" height="294" as="geometry" />
        </mxCell>
        <mxCell id="oji7Lh0gevjrnALUTzUG-10" value="" style="strokeWidth=2;html=1;shape=mxgraph.flowchart.annotation_1;align=left;pointerEvents=1;" parent="1" vertex="1">
          <mxGeometry x="-1330" y="-3367" width="50" height="294" as="geometry" />
        </mxCell>
        <mxCell id="oji7Lh0gevjrnALUTzUG-11" value="" style="strokeWidth=2;html=1;shape=mxgraph.flowchart.annotation_1;align=left;pointerEvents=1;" parent="1" vertex="1">
          <mxGeometry x="-1330" y="-3073" width="50" height="294" as="geometry" />
        </mxCell>
        <mxCell id="oji7Lh0gevjrnALUTzUG-12" value="" style="strokeWidth=2;html=1;shape=mxgraph.flowchart.annotation_1;align=left;pointerEvents=1;" parent="1" vertex="1">
          <mxGeometry x="-1330" y="-2779" width="50" height="294" as="geometry" />
        </mxCell>
        <mxCell id="oji7Lh0gevjrnALUTzUG-51" value="" style="endArrow=none;html=1;rounded=0;exitX=1;exitY=0.5;exitDx=0;exitDy=0;entryX=0;entryY=0.5;entryDx=0;entryDy=0;" parent="1" source="CE21XfU1R8qpKtoGvkG8-37" target="oji7Lh0gevjrnALUTzUG-56" edge="1">
          <mxGeometry width="50" height="50" relative="1" as="geometry">
            <mxPoint x="-890" y="-3445" as="sourcePoint" />
            <mxPoint x="-708.5" y="-3629" as="targetPoint" />
          </mxGeometry>
        </mxCell>
        <mxCell id="oji7Lh0gevjrnALUTzUG-52" value="" style="endArrow=none;html=1;rounded=0;entryX=0;entryY=0.5;entryDx=0;entryDy=0;exitX=1;exitY=0.5;exitDx=0;exitDy=0;" parent="1" source="CE21XfU1R8qpKtoGvkG8-37" target="oji7Lh0gevjrnALUTzUG-58" edge="1">
          <mxGeometry width="50" height="50" relative="1" as="geometry">
            <mxPoint x="-1169" y="-3612" as="sourcePoint" />
            <mxPoint x="-708.5" y="-3555" as="targetPoint" />
          </mxGeometry>
        </mxCell>
        <mxCell id="oji7Lh0gevjrnALUTzUG-54" value="" style="endArrow=none;html=1;rounded=0;exitX=1;exitY=0.5;exitDx=0;exitDy=0;entryX=0;entryY=0.5;entryDx=0;entryDy=0;" parent="1" source="CE21XfU1R8qpKtoGvkG8-37" target="oji7Lh0gevjrnALUTzUG-60" edge="1">
          <mxGeometry width="50" height="50" relative="1" as="geometry">
            <mxPoint x="-890" y="-3445" as="sourcePoint" />
            <mxPoint x="-708.5" y="-3482" as="targetPoint" />
          </mxGeometry>
        </mxCell>
        <mxCell id="oji7Lh0gevjrnALUTzUG-55" value="" style="endArrow=none;html=1;rounded=0;entryX=0;entryY=0.5;entryDx=0;entryDy=0;exitX=1;exitY=0.5;exitDx=0;exitDy=0;" parent="1" source="CE21XfU1R8qpKtoGvkG8-37" target="oji7Lh0gevjrnALUTzUG-62" edge="1">
          <mxGeometry width="50" height="50" relative="1" as="geometry">
            <mxPoint x="-1167" y="-3630" as="sourcePoint" />
            <mxPoint x="-708.5" y="-3408" as="targetPoint" />
          </mxGeometry>
        </mxCell>
        <mxCell id="oji7Lh0gevjrnALUTzUG-151" value="" style="endArrow=none;html=1;rounded=0;entryX=0;entryY=0.5;entryDx=0;entryDy=0;exitX=1;exitY=0.5;exitDx=0;exitDy=0;" parent="1" source="CE21XfU1R8qpKtoGvkG8-39" target="oji7Lh0gevjrnALUTzUG-56" edge="1">
          <mxGeometry width="50" height="50" relative="1" as="geometry">
            <mxPoint x="-591" y="-3381" as="sourcePoint" />
            <mxPoint x="-541" y="-3431" as="targetPoint" />
          </mxGeometry>
        </mxCell>
        <mxCell id="oji7Lh0gevjrnALUTzUG-152" value="" style="endArrow=none;html=1;rounded=0;entryX=0;entryY=0.5;entryDx=0;entryDy=0;exitX=1;exitY=0.5;exitDx=0;exitDy=0;" parent="1" source="CE21XfU1R8qpKtoGvkG8-41" target="oji7Lh0gevjrnALUTzUG-56" edge="1">
          <mxGeometry width="50" height="50" relative="1" as="geometry">
            <mxPoint x="-591" y="-3381" as="sourcePoint" />
            <mxPoint x="-541" y="-3431" as="targetPoint" />
          </mxGeometry>
        </mxCell>
        <mxCell id="oji7Lh0gevjrnALUTzUG-169" value="" style="endArrow=none;html=1;rounded=0;entryX=0;entryY=0.5;entryDx=0;entryDy=0;exitX=1;exitY=0.5;exitDx=0;exitDy=0;" parent="1" source="CE21XfU1R8qpKtoGvkG8-43" target="oji7Lh0gevjrnALUTzUG-56" edge="1">
          <mxGeometry width="50" height="50" relative="1" as="geometry">
            <mxPoint x="-607" y="-3712" as="sourcePoint" />
            <mxPoint x="-351" y="-3749" as="targetPoint" />
          </mxGeometry>
        </mxCell>
        <mxCell id="oji7Lh0gevjrnALUTzUG-171" value="" style="endArrow=none;html=1;rounded=0;entryX=0;entryY=0.5;entryDx=0;entryDy=0;exitX=1;exitY=0.5;exitDx=0;exitDy=0;" parent="1" source="CE21XfU1R8qpKtoGvkG8-47" target="oji7Lh0gevjrnALUTzUG-56" edge="1">
          <mxGeometry width="50" height="50" relative="1" as="geometry">
            <mxPoint x="-587" y="-3692" as="sourcePoint" />
            <mxPoint x="-331" y="-3729" as="targetPoint" />
          </mxGeometry>
        </mxCell>
        <mxCell id="oji7Lh0gevjrnALUTzUG-172" value="" style="endArrow=none;html=1;rounded=0;entryX=0;entryY=0.5;entryDx=0;entryDy=0;exitX=1;exitY=0.5;exitDx=0;exitDy=0;" parent="1" source="CE21XfU1R8qpKtoGvkG8-49" target="oji7Lh0gevjrnALUTzUG-56" edge="1">
          <mxGeometry width="50" height="50" relative="1" as="geometry">
            <mxPoint x="-577" y="-3682" as="sourcePoint" />
            <mxPoint x="-321" y="-3719" as="targetPoint" />
          </mxGeometry>
        </mxCell>
        <mxCell id="oji7Lh0gevjrnALUTzUG-173" value="" style="endArrow=none;html=1;rounded=0;entryX=0;entryY=0.5;entryDx=0;entryDy=0;exitX=1;exitY=0.5;exitDx=0;exitDy=0;" parent="1" source="CE21XfU1R8qpKtoGvkG8-51" target="oji7Lh0gevjrnALUTzUG-56" edge="1">
          <mxGeometry width="50" height="50" relative="1" as="geometry">
            <mxPoint x="-567" y="-3672" as="sourcePoint" />
            <mxPoint x="-311" y="-3709" as="targetPoint" />
          </mxGeometry>
        </mxCell>
        <mxCell id="oji7Lh0gevjrnALUTzUG-174" value="" style="endArrow=none;html=1;rounded=0;entryX=0;entryY=0.5;entryDx=0;entryDy=0;exitX=1;exitY=0.5;exitDx=0;exitDy=0;" parent="1" source="CE21XfU1R8qpKtoGvkG8-53" target="oji7Lh0gevjrnALUTzUG-56" edge="1">
          <mxGeometry width="50" height="50" relative="1" as="geometry">
            <mxPoint x="-557" y="-3662" as="sourcePoint" />
            <mxPoint x="-301" y="-3699" as="targetPoint" />
          </mxGeometry>
        </mxCell>
        <mxCell id="oji7Lh0gevjrnALUTzUG-175" value="" style="endArrow=none;html=1;rounded=0;entryX=0;entryY=0.5;entryDx=0;entryDy=0;exitX=1;exitY=0.5;exitDx=0;exitDy=0;" parent="1" source="CE21XfU1R8qpKtoGvkG8-55" target="oji7Lh0gevjrnALUTzUG-56" edge="1">
          <mxGeometry width="50" height="50" relative="1" as="geometry">
            <mxPoint x="-547" y="-3652" as="sourcePoint" />
            <mxPoint x="-291" y="-3689" as="targetPoint" />
          </mxGeometry>
        </mxCell>
        <mxCell id="oji7Lh0gevjrnALUTzUG-176" value="" style="endArrow=none;html=1;rounded=0;entryX=0;entryY=0.5;entryDx=0;entryDy=0;exitX=1;exitY=0.5;exitDx=0;exitDy=0;" parent="1" source="CE21XfU1R8qpKtoGvkG8-57" target="oji7Lh0gevjrnALUTzUG-56" edge="1">
          <mxGeometry width="50" height="50" relative="1" as="geometry">
            <mxPoint x="-537" y="-3642" as="sourcePoint" />
            <mxPoint x="-281" y="-3679" as="targetPoint" />
          </mxGeometry>
        </mxCell>
        <mxCell id="oji7Lh0gevjrnALUTzUG-177" value="" style="endArrow=none;html=1;rounded=0;entryX=0;entryY=0.5;entryDx=0;entryDy=0;exitX=1;exitY=0.5;exitDx=0;exitDy=0;" parent="1" source="CE21XfU1R8qpKtoGvkG8-59" target="oji7Lh0gevjrnALUTzUG-56" edge="1">
          <mxGeometry width="50" height="50" relative="1" as="geometry">
            <mxPoint x="-1042" y="-2914" as="sourcePoint" />
            <mxPoint x="-271" y="-3669" as="targetPoint" />
          </mxGeometry>
        </mxCell>
        <mxCell id="oji7Lh0gevjrnALUTzUG-178" value="" style="endArrow=none;html=1;rounded=0;entryX=0;entryY=0.5;entryDx=0;entryDy=0;exitX=1;exitY=0.5;exitDx=0;exitDy=0;" parent="1" source="oji7Lh0gevjrnALUTzUG-3" target="oji7Lh0gevjrnALUTzUG-56" edge="1">
          <mxGeometry width="50" height="50" relative="1" as="geometry">
            <mxPoint x="-590" y="-3713" as="sourcePoint" />
            <mxPoint x="-334" y="-3750" as="targetPoint" />
          </mxGeometry>
        </mxCell>
        <mxCell id="oji7Lh0gevjrnALUTzUG-179" value="" style="endArrow=none;html=1;rounded=0;entryX=0;entryY=0.5;entryDx=0;entryDy=0;exitX=1;exitY=0.5;exitDx=0;exitDy=0;" parent="1" source="oji7Lh0gevjrnALUTzUG-1" target="oji7Lh0gevjrnALUTzUG-56" edge="1">
          <mxGeometry width="50" height="50" relative="1" as="geometry">
            <mxPoint x="-580" y="-3703" as="sourcePoint" />
            <mxPoint x="-324" y="-3740" as="targetPoint" />
          </mxGeometry>
        </mxCell>
        <mxCell id="oji7Lh0gevjrnALUTzUG-180" value="" style="endArrow=none;html=1;rounded=0;entryX=0;entryY=0.5;entryDx=0;entryDy=0;exitX=1;exitY=0.5;exitDx=0;exitDy=0;" parent="1" source="oji7Lh0gevjrnALUTzUG-5" target="oji7Lh0gevjrnALUTzUG-56" edge="1">
          <mxGeometry width="50" height="50" relative="1" as="geometry">
            <mxPoint x="-656" y="-3826" as="sourcePoint" />
            <mxPoint x="-400" y="-3863" as="targetPoint" />
          </mxGeometry>
        </mxCell>
        <mxCell id="oji7Lh0gevjrnALUTzUG-181" value="" style="endArrow=none;html=1;rounded=0;entryX=0;entryY=0.5;entryDx=0;entryDy=0;exitX=1;exitY=0.5;exitDx=0;exitDy=0;" parent="1" source="oji7Lh0gevjrnALUTzUG-7" target="oji7Lh0gevjrnALUTzUG-56" edge="1">
          <mxGeometry width="50" height="50" relative="1" as="geometry">
            <mxPoint x="-646" y="-3816" as="sourcePoint" />
            <mxPoint x="-390" y="-3853" as="targetPoint" />
          </mxGeometry>
        </mxCell>
        <mxCell id="oji7Lh0gevjrnALUTzUG-182" value="" style="endArrow=none;html=1;rounded=0;exitX=1;exitY=0.5;exitDx=0;exitDy=0;entryX=0;entryY=0.5;entryDx=0;entryDy=0;" parent="1" source="CE21XfU1R8qpKtoGvkG8-39" target="oji7Lh0gevjrnALUTzUG-58" edge="1">
          <mxGeometry width="50" height="50" relative="1" as="geometry">
            <mxPoint x="-636" y="-3806" as="sourcePoint" />
            <mxPoint x="-380" y="-3843" as="targetPoint" />
          </mxGeometry>
        </mxCell>
        <mxCell id="oji7Lh0gevjrnALUTzUG-183" value="" style="endArrow=none;html=1;rounded=0;exitX=1;exitY=0.5;exitDx=0;exitDy=0;entryX=0;entryY=0.5;entryDx=0;entryDy=0;" parent="1" source="CE21XfU1R8qpKtoGvkG8-39" target="oji7Lh0gevjrnALUTzUG-60" edge="1">
          <mxGeometry width="50" height="50" relative="1" as="geometry">
            <mxPoint x="-626" y="-3796" as="sourcePoint" />
            <mxPoint x="-370" y="-3833" as="targetPoint" />
          </mxGeometry>
        </mxCell>
        <mxCell id="oji7Lh0gevjrnALUTzUG-184" value="" style="endArrow=none;html=1;rounded=0;exitX=1;exitY=0.5;exitDx=0;exitDy=0;entryX=0;entryY=0.5;entryDx=0;entryDy=0;" parent="1" source="CE21XfU1R8qpKtoGvkG8-39" target="oji7Lh0gevjrnALUTzUG-62" edge="1">
          <mxGeometry width="50" height="50" relative="1" as="geometry">
            <mxPoint x="-616" y="-3786" as="sourcePoint" />
            <mxPoint x="-360" y="-3823" as="targetPoint" />
          </mxGeometry>
        </mxCell>
        <mxCell id="VI83C3xkR88cXbr1cVf5-51" value="" style="endArrow=none;html=1;rounded=0;startSize=14;endSize=14;sourcePerimeterSpacing=8;targetPerimeterSpacing=8;curved=1;exitX=1;exitY=0.5;exitDx=0;exitDy=0;entryX=0;entryY=0.5;entryDx=0;entryDy=0;" parent="1" source="CE21XfU1R8qpKtoGvkG8-41" target="oji7Lh0gevjrnALUTzUG-58" edge="1">
          <mxGeometry width="50" height="50" relative="1" as="geometry">
            <mxPoint x="-1053" y="-3424" as="sourcePoint" />
            <mxPoint x="-344" y="-3535" as="targetPoint" />
          </mxGeometry>
        </mxCell>
        <mxCell id="0WpfNRxVd8SMMB5D23eY-1" value="" style="endArrow=none;html=1;rounded=0;exitX=1;exitY=0.5;exitDx=0;exitDy=0;entryX=0;entryY=0.5;entryDx=0;entryDy=0;" parent="1" source="CE21XfU1R8qpKtoGvkG8-41" target="oji7Lh0gevjrnALUTzUG-60" edge="1">
          <mxGeometry width="50" height="50" relative="1" as="geometry">
            <mxPoint x="-811" y="-3735" as="sourcePoint" />
            <mxPoint x="-705" y="-3738" as="targetPoint" />
          </mxGeometry>
        </mxCell>
        <mxCell id="CE21XfU1R8qpKtoGvkG8-37" value="" style="shape=parallelogram;html=1;strokeWidth=2;perimeter=parallelogramPerimeter;whiteSpace=wrap;rounded=1;arcSize=12;size=0.23;fontFamily=IBM Plex Sans;container=0;" parent="1" vertex="1">
          <mxGeometry x="-1263" y="-3659" width="100" height="60" as="geometry" />
        </mxCell>
        <mxCell id="CE21XfU1R8qpKtoGvkG8-38" value="&lt;font face=&quot;CMU Serif&quot; style=&quot;font-size: 48px;&quot;&gt;a&lt;/font&gt;" style="text;strokeColor=none;align=center;fillColor=none;html=1;verticalAlign=middle;whiteSpace=wrap;rounded=0;fontSize=30;container=0;" parent="1" vertex="1">
          <mxGeometry x="-1225" y="-3644" width="24" height="30" as="geometry" />
        </mxCell>
        <mxCell id="CE21XfU1R8qpKtoGvkG8-39" value="" style="shape=parallelogram;html=1;strokeWidth=2;perimeter=parallelogramPerimeter;whiteSpace=wrap;rounded=1;arcSize=12;size=0.23;fontFamily=IBM Plex Sans;container=0;" parent="1" vertex="1">
          <mxGeometry x="-1263" y="-3585" width="100" height="60" as="geometry" />
        </mxCell>
        <mxCell id="CE21XfU1R8qpKtoGvkG8-40" value="&lt;font style=&quot;font-size: 48px;&quot; face=&quot;CMU Serif&quot;&gt;á&lt;/font&gt;" style="text;strokeColor=none;align=center;fillColor=none;html=1;verticalAlign=middle;whiteSpace=wrap;rounded=0;fontSize=30;container=0;" parent="1" vertex="1">
          <mxGeometry x="-1226" y="-3570" width="26" height="30" as="geometry" />
        </mxCell>
        <mxCell id="CE21XfU1R8qpKtoGvkG8-41" value="" style="shape=parallelogram;html=1;strokeWidth=2;perimeter=parallelogramPerimeter;whiteSpace=wrap;rounded=1;arcSize=12;size=0.23;fontFamily=IBM Plex Sans;container=0;" parent="1" vertex="1">
          <mxGeometry x="-1263" y="-3512" width="100" height="60" as="geometry" />
        </mxCell>
        <mxCell id="CE21XfU1R8qpKtoGvkG8-42" value="&lt;font style=&quot;font-size: 48px;&quot; face=&quot;CMU Serif&quot;&gt;ą&lt;/font&gt;" style="text;strokeColor=none;align=center;fillColor=none;html=1;verticalAlign=middle;whiteSpace=wrap;rounded=0;fontSize=30;container=0;" parent="1" vertex="1">
          <mxGeometry x="-1225" y="-3497" width="24" height="30" as="geometry" />
        </mxCell>
        <mxCell id="CE21XfU1R8qpKtoGvkG8-43" value="" style="shape=parallelogram;html=1;strokeWidth=2;perimeter=parallelogramPerimeter;whiteSpace=wrap;rounded=1;arcSize=12;size=0.23;fontFamily=IBM Plex Sans;container=0;" parent="1" vertex="1">
          <mxGeometry x="-1263" y="-3438" width="100" height="60" as="geometry" />
        </mxCell>
        <mxCell id="CE21XfU1R8qpKtoGvkG8-44" value="&lt;p&gt;&lt;font style=&quot;font-size: 48px;&quot; face=&quot;CMU Serif&quot;&gt;ą́&lt;/font&gt;&lt;/p&gt;" style="text;strokeColor=none;align=center;fillColor=none;html=1;verticalAlign=middle;whiteSpace=wrap;rounded=0;fontSize=30;container=0;" parent="1" vertex="1">
          <mxGeometry x="-1224" y="-3423" width="22" height="30" as="geometry" />
        </mxCell>
        <mxCell id="CE21XfU1R8qpKtoGvkG8-45" value="" style="shape=parallelogram;html=1;strokeWidth=2;perimeter=parallelogramPerimeter;whiteSpace=wrap;rounded=1;arcSize=12;size=0.23;fontFamily=IBM Plex Sans;container=0;" parent="1" vertex="1">
          <mxGeometry x="-1263" y="-3365" width="100" height="60" as="geometry" />
        </mxCell>
        <mxCell id="CE21XfU1R8qpKtoGvkG8-46" value="&lt;font style=&quot;font-size: 48px;&quot; face=&quot;CMU Serif&quot;&gt;e&lt;/font&gt;" style="text;strokeColor=none;align=center;fillColor=none;html=1;verticalAlign=middle;whiteSpace=wrap;rounded=0;fontSize=30;container=0;" parent="1" vertex="1">
          <mxGeometry x="-1223" y="-3350" width="20" height="30" as="geometry" />
        </mxCell>
        <mxCell id="CE21XfU1R8qpKtoGvkG8-47" value="" style="shape=parallelogram;html=1;strokeWidth=2;perimeter=parallelogramPerimeter;whiteSpace=wrap;rounded=1;arcSize=12;size=0.23;fontFamily=IBM Plex Sans;container=0;" parent="1" vertex="1">
          <mxGeometry x="-1263" y="-3291" width="100" height="60" as="geometry" />
        </mxCell>
        <mxCell id="CE21XfU1R8qpKtoGvkG8-48" value="&lt;font style=&quot;font-size: 48px;&quot; face=&quot;CMU Serif&quot;&gt;é&lt;/font&gt;" style="text;strokeColor=none;align=center;fillColor=none;html=1;verticalAlign=middle;whiteSpace=wrap;rounded=0;fontSize=30;container=0;" parent="1" vertex="1">
          <mxGeometry x="-1223" y="-3276" width="20" height="30" as="geometry" />
        </mxCell>
        <mxCell id="CE21XfU1R8qpKtoGvkG8-49" value="" style="shape=parallelogram;html=1;strokeWidth=2;perimeter=parallelogramPerimeter;whiteSpace=wrap;rounded=1;arcSize=12;size=0.23;fontFamily=IBM Plex Sans;container=0;" parent="1" vertex="1">
          <mxGeometry x="-1263" y="-3218" width="100" height="60" as="geometry" />
        </mxCell>
        <mxCell id="CE21XfU1R8qpKtoGvkG8-50" value="&lt;font style=&quot;font-size: 48px;&quot; face=&quot;CMU Serif&quot;&gt;ę&lt;/font&gt;" style="text;strokeColor=none;align=center;fillColor=none;html=1;verticalAlign=middle;whiteSpace=wrap;rounded=0;fontSize=30;container=0;" parent="1" vertex="1">
          <mxGeometry x="-1223" y="-3203" width="20" height="30" as="geometry" />
        </mxCell>
        <mxCell id="CE21XfU1R8qpKtoGvkG8-51" value="" style="shape=parallelogram;html=1;strokeWidth=2;perimeter=parallelogramPerimeter;whiteSpace=wrap;rounded=1;arcSize=12;size=0.23;fontFamily=IBM Plex Sans;container=0;" parent="1" vertex="1">
          <mxGeometry x="-1263" y="-3144" width="100" height="60" as="geometry" />
        </mxCell>
        <mxCell id="CE21XfU1R8qpKtoGvkG8-52" value="&lt;font style=&quot;font-size: 48px;&quot; face=&quot;CMU Serif&quot;&gt;ę́&lt;/font&gt;" style="text;strokeColor=none;align=center;fillColor=none;html=1;verticalAlign=middle;whiteSpace=wrap;rounded=0;fontSize=30;container=0;" parent="1" vertex="1">
          <mxGeometry x="-1223" y="-3129" width="20" height="30" as="geometry" />
        </mxCell>
        <mxCell id="CE21XfU1R8qpKtoGvkG8-53" value="" style="shape=parallelogram;html=1;strokeWidth=2;perimeter=parallelogramPerimeter;whiteSpace=wrap;rounded=1;arcSize=12;size=0.23;fontFamily=IBM Plex Sans;container=0;" parent="1" vertex="1">
          <mxGeometry x="-1263" y="-3070" width="100" height="60" as="geometry" />
        </mxCell>
        <mxCell id="CE21XfU1R8qpKtoGvkG8-54" value="&lt;font face=&quot;CMU Serif&quot; style=&quot;font-size: 48px;&quot;&gt;i&lt;/font&gt;" style="text;strokeColor=none;align=center;fillColor=none;html=1;verticalAlign=middle;whiteSpace=wrap;rounded=0;fontSize=30;container=0;" parent="1" vertex="1">
          <mxGeometry x="-1220.5" y="-3055" width="15" height="30" as="geometry" />
        </mxCell>
        <mxCell id="CE21XfU1R8qpKtoGvkG8-55" value="" style="shape=parallelogram;html=1;strokeWidth=2;perimeter=parallelogramPerimeter;whiteSpace=wrap;rounded=1;arcSize=12;size=0.23;fontFamily=IBM Plex Sans;container=0;" parent="1" vertex="1">
          <mxGeometry x="-1263" y="-2996" width="100" height="60" as="geometry" />
        </mxCell>
        <mxCell id="CE21XfU1R8qpKtoGvkG8-56" value="&lt;font style=&quot;font-size: 48px;&quot; face=&quot;CMU Serif&quot;&gt;í&lt;/font&gt;" style="text;strokeColor=none;align=center;fillColor=none;html=1;verticalAlign=middle;whiteSpace=wrap;rounded=0;fontSize=30;container=0;" parent="1" vertex="1">
          <mxGeometry x="-1219.5" y="-2981" width="13" height="30" as="geometry" />
        </mxCell>
        <mxCell id="CE21XfU1R8qpKtoGvkG8-57" value="" style="shape=parallelogram;html=1;strokeWidth=2;perimeter=parallelogramPerimeter;whiteSpace=wrap;rounded=1;arcSize=12;size=0.23;fontFamily=IBM Plex Sans;container=0;" parent="1" vertex="1">
          <mxGeometry x="-1263" y="-2923" width="100" height="60" as="geometry" />
        </mxCell>
        <mxCell id="CE21XfU1R8qpKtoGvkG8-58" value="&lt;font style=&quot;font-size: 48px;&quot; face=&quot;CMU Serif&quot;&gt;į&lt;/font&gt;" style="text;strokeColor=none;align=center;fillColor=none;html=1;verticalAlign=middle;whiteSpace=wrap;rounded=0;fontSize=30;container=0;" parent="1" vertex="1">
          <mxGeometry x="-1219.5" y="-2908" width="13" height="30" as="geometry" />
        </mxCell>
        <mxCell id="CE21XfU1R8qpKtoGvkG8-59" value="" style="shape=parallelogram;html=1;strokeWidth=2;perimeter=parallelogramPerimeter;whiteSpace=wrap;rounded=1;arcSize=12;size=0.23;fontFamily=IBM Plex Sans;container=0;" parent="1" vertex="1">
          <mxGeometry x="-1263" y="-2849" width="100" height="60" as="geometry" />
        </mxCell>
        <mxCell id="CE21XfU1R8qpKtoGvkG8-60" value="&lt;font style=&quot;font-size: 48px;&quot; face=&quot;CMU Serif&quot;&gt;į́&lt;/font&gt;" style="text;strokeColor=none;align=center;fillColor=none;html=1;verticalAlign=middle;whiteSpace=wrap;rounded=0;fontSize=30;container=0;" parent="1" vertex="1">
          <mxGeometry x="-1219.5" y="-2834" width="13" height="30" as="geometry" />
        </mxCell>
        <mxCell id="oji7Lh0gevjrnALUTzUG-1" value="" style="shape=parallelogram;html=1;strokeWidth=2;perimeter=parallelogramPerimeter;whiteSpace=wrap;rounded=1;arcSize=12;size=0.23;fontFamily=IBM Plex Sans;container=0;" parent="1" vertex="1">
          <mxGeometry x="-1263" y="-2775" width="100" height="60" as="geometry" />
        </mxCell>
        <mxCell id="oji7Lh0gevjrnALUTzUG-2" value="&lt;font style=&quot;font-size: 48px;&quot; face=&quot;CMU Serif&quot;&gt;o&lt;/font&gt;" style="text;strokeColor=none;align=center;fillColor=none;html=1;verticalAlign=middle;whiteSpace=wrap;rounded=0;fontSize=30;container=0;" parent="1" vertex="1">
          <mxGeometry x="-1224" y="-2760" width="22" height="30" as="geometry" />
        </mxCell>
        <mxCell id="oji7Lh0gevjrnALUTzUG-3" value="" style="shape=parallelogram;html=1;strokeWidth=2;perimeter=parallelogramPerimeter;whiteSpace=wrap;rounded=1;arcSize=12;size=0.23;fontFamily=IBM Plex Sans;container=0;" parent="1" vertex="1">
          <mxGeometry x="-1263" y="-2701" width="100" height="60" as="geometry" />
        </mxCell>
        <mxCell id="oji7Lh0gevjrnALUTzUG-4" value="&lt;font style=&quot;font-size: 48px;&quot; face=&quot;CMU Serif&quot;&gt;ó&lt;/font&gt;" style="text;strokeColor=none;align=center;fillColor=none;html=1;verticalAlign=middle;whiteSpace=wrap;rounded=0;fontSize=30;container=0;" parent="1" vertex="1">
          <mxGeometry x="-1224" y="-2686" width="22" height="30" as="geometry" />
        </mxCell>
        <mxCell id="oji7Lh0gevjrnALUTzUG-5" value="" style="shape=parallelogram;html=1;strokeWidth=2;perimeter=parallelogramPerimeter;whiteSpace=wrap;rounded=1;arcSize=12;size=0.23;fontFamily=IBM Plex Sans;container=0;" parent="1" vertex="1">
          <mxGeometry x="-1263" y="-2628" width="100" height="60" as="geometry" />
        </mxCell>
        <mxCell id="oji7Lh0gevjrnALUTzUG-6" value="&lt;font style=&quot;font-size: 48px;&quot; face=&quot;CMU Serif&quot;&gt;ǫ&lt;/font&gt;" style="text;strokeColor=none;align=center;fillColor=none;html=1;verticalAlign=middle;whiteSpace=wrap;rounded=0;fontSize=30;container=0;" parent="1" vertex="1">
          <mxGeometry x="-1224" y="-2613" width="22" height="30" as="geometry" />
        </mxCell>
        <mxCell id="oji7Lh0gevjrnALUTzUG-7" value="" style="shape=parallelogram;html=1;strokeWidth=2;perimeter=parallelogramPerimeter;whiteSpace=wrap;rounded=1;arcSize=12;size=0.23;fontFamily=IBM Plex Sans;container=0;" parent="1" vertex="1">
          <mxGeometry x="-1263" y="-2554" width="100" height="60" as="geometry" />
        </mxCell>
        <mxCell id="oji7Lh0gevjrnALUTzUG-8" value="&lt;font style=&quot;font-size: 48px;&quot; face=&quot;CMU Serif&quot;&gt;ǫ́&lt;/font&gt;" style="text;strokeColor=none;align=center;fillColor=none;html=1;verticalAlign=middle;whiteSpace=wrap;rounded=0;fontSize=30;container=0;" parent="1" vertex="1">
          <mxGeometry x="-1223.5" y="-2539" width="21" height="30" as="geometry" />
        </mxCell>
        <mxCell id="oji7Lh0gevjrnALUTzUG-13" value="" style="shape=parallelogram;html=1;strokeWidth=2;perimeter=parallelogramPerimeter;whiteSpace=wrap;rounded=1;arcSize=12;size=0.23;fontFamily=IBM Plex Sans;container=0;" parent="1" vertex="1">
          <mxGeometry x="-1263" y="-2481" width="100" height="60" as="geometry" />
        </mxCell>
        <mxCell id="oji7Lh0gevjrnALUTzUG-14" value="&lt;font style=&quot;font-size: 48px;&quot; face=&quot;CMU Serif&quot;&gt;ń&lt;/font&gt;" style="text;strokeColor=none;align=center;fillColor=none;html=1;verticalAlign=middle;whiteSpace=wrap;rounded=0;fontSize=30;container=0;" parent="1" vertex="1">
          <mxGeometry x="-1225.5" y="-2466" width="25" height="30" as="geometry" />
        </mxCell>
        <mxCell id="oji7Lh0gevjrnALUTzUG-56" value="" style="shape=parallelogram;html=1;strokeWidth=2;perimeter=parallelogramPerimeter;whiteSpace=wrap;rounded=1;arcSize=12;size=0.23;fontFamily=IBM Plex Sans;container=0;" parent="1" vertex="1">
          <mxGeometry x="-332" y="-3659" width="100" height="60" as="geometry" />
        </mxCell>
        <mxCell id="oji7Lh0gevjrnALUTzUG-57" value="&lt;font face=&quot;CMU Serif&quot; style=&quot;font-size: 48px;&quot;&gt;a&lt;/font&gt;" style="text;strokeColor=none;align=center;fillColor=none;html=1;verticalAlign=middle;whiteSpace=wrap;rounded=0;fontSize=30;container=0;" parent="1" vertex="1">
          <mxGeometry x="-294" y="-3644" width="24" height="30" as="geometry" />
        </mxCell>
        <mxCell id="oji7Lh0gevjrnALUTzUG-58" value="" style="shape=parallelogram;html=1;strokeWidth=2;perimeter=parallelogramPerimeter;whiteSpace=wrap;rounded=1;arcSize=12;size=0.23;fontFamily=IBM Plex Sans;container=0;" parent="1" vertex="1">
          <mxGeometry x="-332" y="-3585" width="100" height="60" as="geometry" />
        </mxCell>
        <mxCell id="oji7Lh0gevjrnALUTzUG-59" value="&lt;font style=&quot;font-size: 48px;&quot; face=&quot;CMU Serif&quot;&gt;á&lt;/font&gt;" style="text;strokeColor=none;align=center;fillColor=none;html=1;verticalAlign=middle;whiteSpace=wrap;rounded=0;fontSize=30;container=0;" parent="1" vertex="1">
          <mxGeometry x="-294.5" y="-3570" width="25" height="30" as="geometry" />
        </mxCell>
        <mxCell id="oji7Lh0gevjrnALUTzUG-60" value="" style="shape=parallelogram;html=1;strokeWidth=2;perimeter=parallelogramPerimeter;whiteSpace=wrap;rounded=1;arcSize=12;size=0.23;fontFamily=IBM Plex Sans;container=0;" parent="1" vertex="1">
          <mxGeometry x="-332" y="-3512" width="100" height="60" as="geometry" />
        </mxCell>
        <mxCell id="oji7Lh0gevjrnALUTzUG-61" value="&lt;font style=&quot;font-size: 48px;&quot; face=&quot;CMU Serif&quot;&gt;ą&lt;/font&gt;" style="text;strokeColor=none;align=center;fillColor=none;html=1;verticalAlign=middle;whiteSpace=wrap;rounded=0;fontSize=30;container=0;" parent="1" vertex="1">
          <mxGeometry x="-294" y="-3497" width="24" height="30" as="geometry" />
        </mxCell>
        <mxCell id="oji7Lh0gevjrnALUTzUG-62" value="" style="shape=parallelogram;html=1;strokeWidth=2;perimeter=parallelogramPerimeter;whiteSpace=wrap;rounded=1;arcSize=12;size=0.23;fontFamily=IBM Plex Sans;container=0;" parent="1" vertex="1">
          <mxGeometry x="-332" y="-3438" width="100" height="60" as="geometry" />
        </mxCell>
        <mxCell id="oji7Lh0gevjrnALUTzUG-63" value="&lt;p&gt;&lt;font style=&quot;font-size: 48px;&quot; face=&quot;CMU Serif&quot;&gt;ą́&lt;/font&gt;&lt;/p&gt;" style="text;strokeColor=none;align=center;fillColor=none;html=1;verticalAlign=middle;whiteSpace=wrap;rounded=0;fontSize=30;container=0;" parent="1" vertex="1">
          <mxGeometry x="-292.5" y="-3423" width="21" height="30" as="geometry" />
        </mxCell>
        <mxCell id="oji7Lh0gevjrnALUTzUG-64" value="" style="shape=parallelogram;html=1;strokeWidth=2;perimeter=parallelogramPerimeter;whiteSpace=wrap;rounded=1;arcSize=12;size=0.23;fontFamily=IBM Plex Sans;container=0;" parent="1" vertex="1">
          <mxGeometry x="-332" y="-3365" width="100" height="60" as="geometry" />
        </mxCell>
        <mxCell id="oji7Lh0gevjrnALUTzUG-65" value="&lt;font style=&quot;font-size: 48px;&quot; face=&quot;CMU Serif&quot;&gt;e&lt;/font&gt;" style="text;strokeColor=none;align=center;fillColor=none;html=1;verticalAlign=middle;whiteSpace=wrap;rounded=0;fontSize=30;container=0;" parent="1" vertex="1">
          <mxGeometry x="-291.5" y="-3350" width="19" height="30" as="geometry" />
        </mxCell>
        <mxCell id="oji7Lh0gevjrnALUTzUG-66" value="" style="shape=parallelogram;html=1;strokeWidth=2;perimeter=parallelogramPerimeter;whiteSpace=wrap;rounded=1;arcSize=12;size=0.23;fontFamily=IBM Plex Sans;container=0;" parent="1" vertex="1">
          <mxGeometry x="-332" y="-3291" width="100" height="60" as="geometry" />
        </mxCell>
        <mxCell id="oji7Lh0gevjrnALUTzUG-67" value="&lt;font style=&quot;font-size: 48px;&quot; face=&quot;CMU Serif&quot;&gt;é&lt;/font&gt;" style="text;strokeColor=none;align=center;fillColor=none;html=1;verticalAlign=middle;whiteSpace=wrap;rounded=0;fontSize=30;container=0;" parent="1" vertex="1">
          <mxGeometry x="-291.5" y="-3276" width="19" height="30" as="geometry" />
        </mxCell>
        <mxCell id="oji7Lh0gevjrnALUTzUG-68" value="" style="shape=parallelogram;html=1;strokeWidth=2;perimeter=parallelogramPerimeter;whiteSpace=wrap;rounded=1;arcSize=12;size=0.23;fontFamily=IBM Plex Sans;container=0;" parent="1" vertex="1">
          <mxGeometry x="-332" y="-3218" width="100" height="60" as="geometry" />
        </mxCell>
        <mxCell id="oji7Lh0gevjrnALUTzUG-69" value="&lt;font style=&quot;font-size: 48px;&quot; face=&quot;CMU Serif&quot;&gt;ę&lt;/font&gt;" style="text;strokeColor=none;align=center;fillColor=none;html=1;verticalAlign=middle;whiteSpace=wrap;rounded=0;fontSize=30;container=0;" parent="1" vertex="1">
          <mxGeometry x="-291.5" y="-3203" width="19" height="30" as="geometry" />
        </mxCell>
        <mxCell id="oji7Lh0gevjrnALUTzUG-70" value="" style="shape=parallelogram;html=1;strokeWidth=2;perimeter=parallelogramPerimeter;whiteSpace=wrap;rounded=1;arcSize=12;size=0.23;fontFamily=IBM Plex Sans;container=0;" parent="1" vertex="1">
          <mxGeometry x="-332" y="-3144" width="100" height="60" as="geometry" />
        </mxCell>
        <mxCell id="oji7Lh0gevjrnALUTzUG-71" value="&lt;font style=&quot;font-size: 48px;&quot; face=&quot;CMU Serif&quot;&gt;ę́&lt;/font&gt;" style="text;strokeColor=none;align=center;fillColor=none;html=1;verticalAlign=middle;whiteSpace=wrap;rounded=0;fontSize=30;container=0;" parent="1" vertex="1">
          <mxGeometry x="-291.5" y="-3129" width="19" height="30" as="geometry" />
        </mxCell>
        <mxCell id="oji7Lh0gevjrnALUTzUG-72" value="" style="shape=parallelogram;html=1;strokeWidth=2;perimeter=parallelogramPerimeter;whiteSpace=wrap;rounded=1;arcSize=12;size=0.23;fontFamily=IBM Plex Sans;container=0;" parent="1" vertex="1">
          <mxGeometry x="-332" y="-3070" width="100" height="60" as="geometry" />
        </mxCell>
        <mxCell id="oji7Lh0gevjrnALUTzUG-73" value="&lt;font face=&quot;CMU Serif&quot; style=&quot;font-size: 48px;&quot;&gt;i&lt;/font&gt;" style="text;strokeColor=none;align=center;fillColor=none;html=1;verticalAlign=middle;whiteSpace=wrap;rounded=0;fontSize=30;container=0;" parent="1" vertex="1">
          <mxGeometry x="-287.5" y="-3055" width="11" height="30" as="geometry" />
        </mxCell>
        <mxCell id="oji7Lh0gevjrnALUTzUG-74" value="" style="shape=parallelogram;html=1;strokeWidth=2;perimeter=parallelogramPerimeter;whiteSpace=wrap;rounded=1;arcSize=12;size=0.23;fontFamily=IBM Plex Sans;container=0;" parent="1" vertex="1">
          <mxGeometry x="-332" y="-2996" width="100" height="60" as="geometry" />
        </mxCell>
        <mxCell id="oji7Lh0gevjrnALUTzUG-75" value="&lt;font style=&quot;font-size: 48px;&quot; face=&quot;CMU Serif&quot;&gt;í&lt;/font&gt;" style="text;strokeColor=none;align=center;fillColor=none;html=1;verticalAlign=middle;whiteSpace=wrap;rounded=0;fontSize=30;container=0;" parent="1" vertex="1">
          <mxGeometry x="-288.5" y="-2981" width="13" height="30" as="geometry" />
        </mxCell>
        <mxCell id="oji7Lh0gevjrnALUTzUG-76" value="" style="shape=parallelogram;html=1;strokeWidth=2;perimeter=parallelogramPerimeter;whiteSpace=wrap;rounded=1;arcSize=12;size=0.23;fontFamily=IBM Plex Sans;container=0;" parent="1" vertex="1">
          <mxGeometry x="-332" y="-2923" width="100" height="60" as="geometry" />
        </mxCell>
        <mxCell id="oji7Lh0gevjrnALUTzUG-77" value="&lt;font style=&quot;font-size: 48px;&quot; face=&quot;CMU Serif&quot;&gt;į&lt;/font&gt;" style="text;strokeColor=none;align=center;fillColor=none;html=1;verticalAlign=middle;whiteSpace=wrap;rounded=0;fontSize=30;container=0;" parent="1" vertex="1">
          <mxGeometry x="-287.5" y="-2908" width="11" height="30" as="geometry" />
        </mxCell>
        <mxCell id="oji7Lh0gevjrnALUTzUG-78" value="" style="shape=parallelogram;html=1;strokeWidth=2;perimeter=parallelogramPerimeter;whiteSpace=wrap;rounded=1;arcSize=12;size=0.23;fontFamily=IBM Plex Sans;container=0;" parent="1" vertex="1">
          <mxGeometry x="-332" y="-2849" width="100" height="60" as="geometry" />
        </mxCell>
        <mxCell id="oji7Lh0gevjrnALUTzUG-79" value="&lt;font style=&quot;font-size: 48px;&quot; face=&quot;CMU Serif&quot;&gt;į́&lt;/font&gt;" style="text;strokeColor=none;align=center;fillColor=none;html=1;verticalAlign=middle;whiteSpace=wrap;rounded=0;fontSize=30;container=0;" parent="1" vertex="1">
          <mxGeometry x="-287.5" y="-2834" width="11" height="30" as="geometry" />
        </mxCell>
        <mxCell id="oji7Lh0gevjrnALUTzUG-80" value="" style="shape=parallelogram;html=1;strokeWidth=2;perimeter=parallelogramPerimeter;whiteSpace=wrap;rounded=1;arcSize=12;size=0.23;fontFamily=IBM Plex Sans;container=0;" parent="1" vertex="1">
          <mxGeometry x="-332" y="-2775" width="100" height="60" as="geometry" />
        </mxCell>
        <mxCell id="oji7Lh0gevjrnALUTzUG-81" value="&lt;font style=&quot;font-size: 48px;&quot; face=&quot;CMU Serif&quot;&gt;o&lt;/font&gt;" style="text;strokeColor=none;align=center;fillColor=none;html=1;verticalAlign=middle;whiteSpace=wrap;rounded=0;fontSize=30;container=0;" parent="1" vertex="1">
          <mxGeometry x="-293" y="-2760" width="22" height="30" as="geometry" />
        </mxCell>
        <mxCell id="oji7Lh0gevjrnALUTzUG-82" value="" style="shape=parallelogram;html=1;strokeWidth=2;perimeter=parallelogramPerimeter;whiteSpace=wrap;rounded=1;arcSize=12;size=0.23;fontFamily=IBM Plex Sans;container=0;" parent="1" vertex="1">
          <mxGeometry x="-332" y="-2701" width="100" height="60" as="geometry" />
        </mxCell>
        <mxCell id="oji7Lh0gevjrnALUTzUG-83" value="&lt;font style=&quot;font-size: 48px;&quot; face=&quot;CMU Serif&quot;&gt;ó&lt;/font&gt;" style="text;strokeColor=none;align=center;fillColor=none;html=1;verticalAlign=middle;whiteSpace=wrap;rounded=0;fontSize=30;container=0;" parent="1" vertex="1">
          <mxGeometry x="-293" y="-2686" width="22" height="30" as="geometry" />
        </mxCell>
        <mxCell id="oji7Lh0gevjrnALUTzUG-84" value="" style="shape=parallelogram;html=1;strokeWidth=2;perimeter=parallelogramPerimeter;whiteSpace=wrap;rounded=1;arcSize=12;size=0.23;fontFamily=IBM Plex Sans;container=0;" parent="1" vertex="1">
          <mxGeometry x="-332" y="-2628" width="100" height="60" as="geometry" />
        </mxCell>
        <mxCell id="oji7Lh0gevjrnALUTzUG-85" value="&lt;font style=&quot;font-size: 48px;&quot; face=&quot;CMU Serif&quot;&gt;ǫ&lt;/font&gt;" style="text;strokeColor=none;align=center;fillColor=none;html=1;verticalAlign=middle;whiteSpace=wrap;rounded=0;fontSize=30;container=0;" parent="1" vertex="1">
          <mxGeometry x="-292.5" y="-2613" width="21" height="30" as="geometry" />
        </mxCell>
        <mxCell id="oji7Lh0gevjrnALUTzUG-86" value="" style="shape=parallelogram;html=1;strokeWidth=2;perimeter=parallelogramPerimeter;whiteSpace=wrap;rounded=1;arcSize=12;size=0.23;fontFamily=IBM Plex Sans;container=0;" parent="1" vertex="1">
          <mxGeometry x="-332" y="-2554" width="100" height="60" as="geometry" />
        </mxCell>
        <mxCell id="oji7Lh0gevjrnALUTzUG-87" value="&lt;font style=&quot;font-size: 48px;&quot; face=&quot;CMU Serif&quot;&gt;ǫ́&lt;/font&gt;" style="text;strokeColor=none;align=center;fillColor=none;html=1;verticalAlign=middle;whiteSpace=wrap;rounded=0;fontSize=30;container=0;" parent="1" vertex="1">
          <mxGeometry x="-292.5" y="-2539" width="21" height="30" as="geometry" />
        </mxCell>
        <mxCell id="0WpfNRxVd8SMMB5D23eY-2" value="" style="endArrow=none;html=1;rounded=0;exitX=1;exitY=0.5;exitDx=0;exitDy=0;entryX=0;entryY=0.5;entryDx=0;entryDy=0;" parent="1" source="CE21XfU1R8qpKtoGvkG8-41" target="oji7Lh0gevjrnALUTzUG-62" edge="1">
          <mxGeometry width="50" height="50" relative="1" as="geometry">
            <mxPoint x="-801" y="-3725" as="sourcePoint" />
            <mxPoint x="-695" y="-3728" as="targetPoint" />
          </mxGeometry>
        </mxCell>
        <mxCell id="0WpfNRxVd8SMMB5D23eY-15" value="" style="endArrow=none;html=1;rounded=0;exitX=1;exitY=0.5;exitDx=0;exitDy=0;entryX=0;entryY=0.5;entryDx=0;entryDy=0;" parent="1" source="CE21XfU1R8qpKtoGvkG8-43" target="oji7Lh0gevjrnALUTzUG-58" edge="1">
          <mxGeometry width="50" height="50" relative="1" as="geometry">
            <mxPoint x="-166" y="-3404" as="sourcePoint" />
            <mxPoint x="-60" y="-3407" as="targetPoint" />
          </mxGeometry>
        </mxCell>
        <mxCell id="0WpfNRxVd8SMMB5D23eY-16" value="" style="endArrow=none;html=1;rounded=0;exitX=1;exitY=0.5;exitDx=0;exitDy=0;entryX=0;entryY=0.5;entryDx=0;entryDy=0;" parent="1" source="CE21XfU1R8qpKtoGvkG8-43" target="oji7Lh0gevjrnALUTzUG-60" edge="1">
          <mxGeometry width="50" height="50" relative="1" as="geometry">
            <mxPoint x="-156" y="-3394" as="sourcePoint" />
            <mxPoint x="10" y="-3511" as="targetPoint" />
          </mxGeometry>
        </mxCell>
        <mxCell id="0WpfNRxVd8SMMB5D23eY-17" value="" style="endArrow=none;html=1;rounded=0;exitX=1;exitY=0.5;exitDx=0;exitDy=0;entryX=0;entryY=0.5;entryDx=0;entryDy=0;" parent="1" source="CE21XfU1R8qpKtoGvkG8-43" target="oji7Lh0gevjrnALUTzUG-62" edge="1">
          <mxGeometry width="50" height="50" relative="1" as="geometry">
            <mxPoint x="-146" y="-3384" as="sourcePoint" />
            <mxPoint x="-40" y="-3387" as="targetPoint" />
          </mxGeometry>
        </mxCell>
        <mxCell id="0WpfNRxVd8SMMB5D23eY-33" value="" style="endArrow=none;html=1;rounded=0;exitX=1;exitY=0.5;exitDx=0;exitDy=0;entryX=0;entryY=0.5;entryDx=0;entryDy=0;" parent="1" source="CE21XfU1R8qpKtoGvkG8-45" target="oji7Lh0gevjrnALUTzUG-64" edge="1">
          <mxGeometry width="50" height="50" relative="1" as="geometry">
            <mxPoint x="14" y="-3224" as="sourcePoint" />
            <mxPoint x="120" y="-3227" as="targetPoint" />
          </mxGeometry>
        </mxCell>
        <mxCell id="0WpfNRxVd8SMMB5D23eY-34" value="" style="endArrow=none;html=1;rounded=0;exitX=1;exitY=0.5;exitDx=0;exitDy=0;entryX=0;entryY=0.5;entryDx=0;entryDy=0;" parent="1" source="CE21XfU1R8qpKtoGvkG8-45" target="oji7Lh0gevjrnALUTzUG-66" edge="1">
          <mxGeometry width="50" height="50" relative="1" as="geometry">
            <mxPoint x="24" y="-3214" as="sourcePoint" />
            <mxPoint x="76" y="-3087" as="targetPoint" />
          </mxGeometry>
        </mxCell>
        <mxCell id="0WpfNRxVd8SMMB5D23eY-35" value="" style="endArrow=none;html=1;rounded=0;exitX=1;exitY=0.5;exitDx=0;exitDy=0;entryX=0;entryY=0.5;entryDx=0;entryDy=0;" parent="1" source="CE21XfU1R8qpKtoGvkG8-45" target="oji7Lh0gevjrnALUTzUG-68" edge="1">
          <mxGeometry width="50" height="50" relative="1" as="geometry">
            <mxPoint x="34" y="-3204" as="sourcePoint" />
            <mxPoint x="116" y="-3305" as="targetPoint" />
          </mxGeometry>
        </mxCell>
        <mxCell id="0WpfNRxVd8SMMB5D23eY-36" value="" style="endArrow=none;html=1;rounded=0;exitX=1;exitY=0.5;exitDx=0;exitDy=0;entryX=0;entryY=0.5;entryDx=0;entryDy=0;" parent="1" source="CE21XfU1R8qpKtoGvkG8-45" target="oji7Lh0gevjrnALUTzUG-70" edge="1">
          <mxGeometry width="50" height="50" relative="1" as="geometry">
            <mxPoint x="44" y="-3194" as="sourcePoint" />
            <mxPoint x="150" y="-3197" as="targetPoint" />
          </mxGeometry>
        </mxCell>
        <mxCell id="0WpfNRxVd8SMMB5D23eY-45" value="" style="endArrow=none;html=1;rounded=0;exitX=1;exitY=0.5;exitDx=0;exitDy=0;entryX=0;entryY=0.5;entryDx=0;entryDy=0;" parent="1" source="CE21XfU1R8qpKtoGvkG8-47" target="oji7Lh0gevjrnALUTzUG-58" edge="1">
          <mxGeometry width="50" height="50" relative="1" as="geometry">
            <mxPoint x="134" y="-3104" as="sourcePoint" />
            <mxPoint x="240" y="-3107" as="targetPoint" />
          </mxGeometry>
        </mxCell>
        <mxCell id="0WpfNRxVd8SMMB5D23eY-46" value="" style="endArrow=none;html=1;rounded=0;exitX=1;exitY=0.5;exitDx=0;exitDy=0;entryX=0;entryY=0.5;entryDx=0;entryDy=0;" parent="1" source="CE21XfU1R8qpKtoGvkG8-47" target="oji7Lh0gevjrnALUTzUG-60" edge="1">
          <mxGeometry width="50" height="50" relative="1" as="geometry">
            <mxPoint x="144" y="-3094" as="sourcePoint" />
            <mxPoint x="250" y="-3097" as="targetPoint" />
          </mxGeometry>
        </mxCell>
        <mxCell id="0WpfNRxVd8SMMB5D23eY-47" value="" style="endArrow=none;html=1;rounded=0;exitX=1;exitY=0.5;exitDx=0;exitDy=0;entryX=0;entryY=0.5;entryDx=0;entryDy=0;" parent="1" source="CE21XfU1R8qpKtoGvkG8-47" target="oji7Lh0gevjrnALUTzUG-62" edge="1">
          <mxGeometry width="50" height="50" relative="1" as="geometry">
            <mxPoint x="154" y="-3084" as="sourcePoint" />
            <mxPoint x="260" y="-3087" as="targetPoint" />
          </mxGeometry>
        </mxCell>
        <mxCell id="0WpfNRxVd8SMMB5D23eY-48" value="" style="endArrow=none;html=1;rounded=0;exitX=1;exitY=0.5;exitDx=0;exitDy=0;entryX=0;entryY=0.5;entryDx=0;entryDy=0;" parent="1" source="CE21XfU1R8qpKtoGvkG8-47" target="oji7Lh0gevjrnALUTzUG-64" edge="1">
          <mxGeometry width="50" height="50" relative="1" as="geometry">
            <mxPoint x="-200" y="-3328" as="sourcePoint" />
            <mxPoint x="-94" y="-3331" as="targetPoint" />
          </mxGeometry>
        </mxCell>
        <mxCell id="0WpfNRxVd8SMMB5D23eY-49" value="" style="endArrow=none;html=1;rounded=0;exitX=1;exitY=0.5;exitDx=0;exitDy=0;entryX=0;entryY=0.5;entryDx=0;entryDy=0;" parent="1" source="CE21XfU1R8qpKtoGvkG8-47" target="oji7Lh0gevjrnALUTzUG-66" edge="1">
          <mxGeometry width="50" height="50" relative="1" as="geometry">
            <mxPoint x="-190" y="-3318" as="sourcePoint" />
            <mxPoint x="-84" y="-3321" as="targetPoint" />
          </mxGeometry>
        </mxCell>
        <mxCell id="0WpfNRxVd8SMMB5D23eY-50" value="" style="endArrow=none;html=1;rounded=0;exitX=1;exitY=0.5;exitDx=0;exitDy=0;entryX=0;entryY=0.5;entryDx=0;entryDy=0;" parent="1" source="CE21XfU1R8qpKtoGvkG8-47" target="oji7Lh0gevjrnALUTzUG-68" edge="1">
          <mxGeometry width="50" height="50" relative="1" as="geometry">
            <mxPoint x="-180" y="-3308" as="sourcePoint" />
            <mxPoint x="-74" y="-3311" as="targetPoint" />
          </mxGeometry>
        </mxCell>
        <mxCell id="0WpfNRxVd8SMMB5D23eY-51" value="&lt;font face=&quot;Tahoma&quot; style=&quot;font-size: 24px;&quot;&gt;1&lt;/font&gt;" style="text;html=1;strokeColor=none;fillColor=none;align=center;verticalAlign=middle;whiteSpace=wrap;rounded=0;" parent="1" vertex="1">
          <mxGeometry x="-200" y="-3644" width="60" height="30" as="geometry" />
        </mxCell>
        <mxCell id="0WpfNRxVd8SMMB5D23eY-52" value="&lt;font face=&quot;Tahoma&quot; style=&quot;font-size: 24px;&quot;&gt;2&lt;/font&gt;" style="text;html=1;strokeColor=none;fillColor=none;align=center;verticalAlign=middle;whiteSpace=wrap;rounded=0;" parent="1" vertex="1">
          <mxGeometry x="-200" y="-3570" width="60" height="30" as="geometry" />
        </mxCell>
        <mxCell id="0WpfNRxVd8SMMB5D23eY-53" value="&lt;font face=&quot;Tahoma&quot; style=&quot;font-size: 24px;&quot;&gt;3&lt;/font&gt;" style="text;html=1;strokeColor=none;fillColor=none;align=center;verticalAlign=middle;whiteSpace=wrap;rounded=0;" parent="1" vertex="1">
          <mxGeometry x="-200" y="-3497" width="60" height="30" as="geometry" />
        </mxCell>
        <mxCell id="0WpfNRxVd8SMMB5D23eY-54" value="&lt;font face=&quot;Tahoma&quot; style=&quot;font-size: 24px;&quot;&gt;4&lt;/font&gt;" style="text;html=1;strokeColor=none;fillColor=none;align=center;verticalAlign=middle;whiteSpace=wrap;rounded=0;" parent="1" vertex="1">
          <mxGeometry x="-200" y="-3423" width="60" height="30" as="geometry" />
        </mxCell>
        <mxCell id="0WpfNRxVd8SMMB5D23eY-55" value="&lt;font face=&quot;Tahoma&quot; style=&quot;font-size: 24px;&quot;&gt;5&lt;/font&gt;" style="text;html=1;strokeColor=none;fillColor=none;align=center;verticalAlign=middle;whiteSpace=wrap;rounded=0;" parent="1" vertex="1">
          <mxGeometry x="-200" y="-3350" width="60" height="30" as="geometry" />
        </mxCell>
        <mxCell id="0WpfNRxVd8SMMB5D23eY-56" value="&lt;font face=&quot;Tahoma&quot; style=&quot;font-size: 24px;&quot;&gt;6&lt;/font&gt;" style="text;html=1;strokeColor=none;fillColor=none;align=center;verticalAlign=middle;whiteSpace=wrap;rounded=0;" parent="1" vertex="1">
          <mxGeometry x="-200" y="-3276" width="60" height="30" as="geometry" />
        </mxCell>
        <mxCell id="0WpfNRxVd8SMMB5D23eY-57" value="&lt;font face=&quot;Tahoma&quot; style=&quot;font-size: 24px;&quot;&gt;7&lt;/font&gt;" style="text;html=1;strokeColor=none;fillColor=none;align=center;verticalAlign=middle;whiteSpace=wrap;rounded=0;" parent="1" vertex="1">
          <mxGeometry x="-200" y="-3203" width="60" height="30" as="geometry" />
        </mxCell>
        <mxCell id="0WpfNRxVd8SMMB5D23eY-58" value="&lt;font face=&quot;Tahoma&quot; style=&quot;font-size: 24px;&quot;&gt;8&lt;/font&gt;" style="text;html=1;strokeColor=none;fillColor=none;align=center;verticalAlign=middle;whiteSpace=wrap;rounded=0;" parent="1" vertex="1">
          <mxGeometry x="-200" y="-3129" width="60" height="30" as="geometry" />
        </mxCell>
        <mxCell id="0WpfNRxVd8SMMB5D23eY-59" value="&lt;font face=&quot;Tahoma&quot; style=&quot;font-size: 24px;&quot;&gt;9&lt;/font&gt;" style="text;html=1;strokeColor=none;fillColor=none;align=center;verticalAlign=middle;whiteSpace=wrap;rounded=0;" parent="1" vertex="1">
          <mxGeometry x="-200" y="-3055" width="60" height="30" as="geometry" />
        </mxCell>
        <mxCell id="0WpfNRxVd8SMMB5D23eY-60" value="&lt;font face=&quot;Tahoma&quot; style=&quot;font-size: 24px;&quot;&gt;10&lt;/font&gt;" style="text;html=1;strokeColor=none;fillColor=none;align=center;verticalAlign=middle;whiteSpace=wrap;rounded=0;" parent="1" vertex="1">
          <mxGeometry x="-200" y="-2981" width="60" height="30" as="geometry" />
        </mxCell>
        <mxCell id="0WpfNRxVd8SMMB5D23eY-61" value="&lt;font face=&quot;Tahoma&quot; style=&quot;font-size: 24px;&quot;&gt;11&lt;/font&gt;" style="text;html=1;strokeColor=none;fillColor=none;align=center;verticalAlign=middle;whiteSpace=wrap;rounded=0;" parent="1" vertex="1">
          <mxGeometry x="-200" y="-2907" width="60" height="30" as="geometry" />
        </mxCell>
        <mxCell id="0WpfNRxVd8SMMB5D23eY-62" value="&lt;font face=&quot;Tahoma&quot; style=&quot;font-size: 24px;&quot;&gt;12&lt;/font&gt;" style="text;html=1;strokeColor=none;fillColor=none;align=center;verticalAlign=middle;whiteSpace=wrap;rounded=0;" parent="1" vertex="1">
          <mxGeometry x="-200" y="-2834" width="60" height="30" as="geometry" />
        </mxCell>
        <mxCell id="0WpfNRxVd8SMMB5D23eY-63" value="&lt;font face=&quot;Tahoma&quot; style=&quot;font-size: 24px;&quot;&gt;13&lt;/font&gt;" style="text;html=1;strokeColor=none;fillColor=none;align=center;verticalAlign=middle;whiteSpace=wrap;rounded=0;" parent="1" vertex="1">
          <mxGeometry x="-200" y="-2760" width="60" height="30" as="geometry" />
        </mxCell>
        <mxCell id="0WpfNRxVd8SMMB5D23eY-64" value="&lt;font face=&quot;Tahoma&quot; style=&quot;font-size: 24px;&quot;&gt;14&lt;/font&gt;" style="text;html=1;strokeColor=none;fillColor=none;align=center;verticalAlign=middle;whiteSpace=wrap;rounded=0;" parent="1" vertex="1">
          <mxGeometry x="-200" y="-2687" width="60" height="30" as="geometry" />
        </mxCell>
        <mxCell id="0WpfNRxVd8SMMB5D23eY-65" value="&lt;font face=&quot;Tahoma&quot; style=&quot;font-size: 24px;&quot;&gt;15&lt;/font&gt;" style="text;html=1;strokeColor=none;fillColor=none;align=center;verticalAlign=middle;whiteSpace=wrap;rounded=0;" parent="1" vertex="1">
          <mxGeometry x="-200" y="-2613" width="60" height="30" as="geometry" />
        </mxCell>
        <mxCell id="0WpfNRxVd8SMMB5D23eY-66" value="&lt;font face=&quot;Tahoma&quot; style=&quot;font-size: 24px;&quot;&gt;16&lt;/font&gt;" style="text;html=1;strokeColor=none;fillColor=none;align=center;verticalAlign=middle;whiteSpace=wrap;rounded=0;" parent="1" vertex="1">
          <mxGeometry x="-200" y="-2540" width="60" height="30" as="geometry" />
        </mxCell>
        <mxCell id="0WpfNRxVd8SMMB5D23eY-68" value="" style="endArrow=none;html=1;rounded=0;exitX=1;exitY=0.5;exitDx=0;exitDy=0;entryX=0;entryY=0.5;entryDx=0;entryDy=0;" parent="1" source="CE21XfU1R8qpKtoGvkG8-47" target="oji7Lh0gevjrnALUTzUG-70" edge="1">
          <mxGeometry width="50" height="50" relative="1" as="geometry">
            <mxPoint x="-140" y="-3305" as="sourcePoint" />
            <mxPoint x="-63" y="-3325" as="targetPoint" />
          </mxGeometry>
        </mxCell>
        <mxCell id="0WpfNRxVd8SMMB5D23eY-69" value="" style="endArrow=none;html=1;rounded=0;exitX=1;exitY=0.5;exitDx=0;exitDy=0;entryX=0;entryY=0.5;entryDx=0;entryDy=0;" parent="1" source="CE21XfU1R8qpKtoGvkG8-47" target="oji7Lh0gevjrnALUTzUG-72" edge="1">
          <mxGeometry width="50" height="50" relative="1" as="geometry">
            <mxPoint x="-130" y="-3295" as="sourcePoint" />
            <mxPoint x="-53" y="-3315" as="targetPoint" />
          </mxGeometry>
        </mxCell>
        <mxCell id="0WpfNRxVd8SMMB5D23eY-70" value="" style="endArrow=none;html=1;rounded=0;exitX=1;exitY=0.5;exitDx=0;exitDy=0;entryX=0;entryY=0.5;entryDx=0;entryDy=0;" parent="1" source="CE21XfU1R8qpKtoGvkG8-47" target="oji7Lh0gevjrnALUTzUG-74" edge="1">
          <mxGeometry width="50" height="50" relative="1" as="geometry">
            <mxPoint x="-120" y="-3285" as="sourcePoint" />
            <mxPoint x="-43" y="-3305" as="targetPoint" />
          </mxGeometry>
        </mxCell>
        <mxCell id="0WpfNRxVd8SMMB5D23eY-71" value="" style="endArrow=none;html=1;rounded=0;exitX=1;exitY=0.5;exitDx=0;exitDy=0;entryX=0;entryY=0.5;entryDx=0;entryDy=0;" parent="1" source="CE21XfU1R8qpKtoGvkG8-47" target="oji7Lh0gevjrnALUTzUG-76" edge="1">
          <mxGeometry width="50" height="50" relative="1" as="geometry">
            <mxPoint x="-110" y="-3275" as="sourcePoint" />
            <mxPoint x="-33" y="-3295" as="targetPoint" />
          </mxGeometry>
        </mxCell>
        <mxCell id="0WpfNRxVd8SMMB5D23eY-72" value="" style="endArrow=none;html=1;rounded=0;exitX=1;exitY=0.5;exitDx=0;exitDy=0;entryX=0;entryY=0.5;entryDx=0;entryDy=0;" parent="1" source="CE21XfU1R8qpKtoGvkG8-47" target="oji7Lh0gevjrnALUTzUG-78" edge="1">
          <mxGeometry width="50" height="50" relative="1" as="geometry">
            <mxPoint x="-100" y="-3265" as="sourcePoint" />
            <mxPoint x="-23" y="-3285" as="targetPoint" />
          </mxGeometry>
        </mxCell>
        <mxCell id="0WpfNRxVd8SMMB5D23eY-73" value="" style="endArrow=none;html=1;rounded=0;exitX=1;exitY=0.5;exitDx=0;exitDy=0;entryX=0;entryY=0.5;entryDx=0;entryDy=0;" parent="1" source="CE21XfU1R8qpKtoGvkG8-47" target="oji7Lh0gevjrnALUTzUG-80" edge="1">
          <mxGeometry width="50" height="50" relative="1" as="geometry">
            <mxPoint x="-90" y="-3255" as="sourcePoint" />
            <mxPoint x="-13" y="-3275" as="targetPoint" />
          </mxGeometry>
        </mxCell>
        <mxCell id="0WpfNRxVd8SMMB5D23eY-74" value="" style="endArrow=none;html=1;rounded=0;exitX=1;exitY=0.5;exitDx=0;exitDy=0;entryX=0;entryY=0.5;entryDx=0;entryDy=0;" parent="1" source="CE21XfU1R8qpKtoGvkG8-47" target="oji7Lh0gevjrnALUTzUG-82" edge="1">
          <mxGeometry width="50" height="50" relative="1" as="geometry">
            <mxPoint x="-80" y="-3245" as="sourcePoint" />
            <mxPoint x="-3" y="-3265" as="targetPoint" />
          </mxGeometry>
        </mxCell>
        <mxCell id="0WpfNRxVd8SMMB5D23eY-75" value="" style="endArrow=none;html=1;rounded=0;exitX=1;exitY=0.5;exitDx=0;exitDy=0;entryX=0;entryY=0.5;entryDx=0;entryDy=0;" parent="1" source="CE21XfU1R8qpKtoGvkG8-47" target="oji7Lh0gevjrnALUTzUG-84" edge="1">
          <mxGeometry width="50" height="50" relative="1" as="geometry">
            <mxPoint x="-70" y="-3235" as="sourcePoint" />
            <mxPoint x="7" y="-3255" as="targetPoint" />
          </mxGeometry>
        </mxCell>
        <mxCell id="0WpfNRxVd8SMMB5D23eY-76" value="" style="endArrow=none;html=1;rounded=0;exitX=1;exitY=0.5;exitDx=0;exitDy=0;entryX=0;entryY=0.5;entryDx=0;entryDy=0;" parent="1" source="CE21XfU1R8qpKtoGvkG8-47" target="oji7Lh0gevjrnALUTzUG-86" edge="1">
          <mxGeometry width="50" height="50" relative="1" as="geometry">
            <mxPoint x="-60" y="-3225" as="sourcePoint" />
            <mxPoint x="17" y="-3245" as="targetPoint" />
          </mxGeometry>
        </mxCell>
        <mxCell id="0WpfNRxVd8SMMB5D23eY-77" value="" style="endArrow=none;html=1;rounded=0;exitX=1;exitY=0.5;exitDx=0;exitDy=0;entryX=0;entryY=0.5;entryDx=0;entryDy=0;" parent="1" source="CE21XfU1R8qpKtoGvkG8-49" target="oji7Lh0gevjrnALUTzUG-58" edge="1">
          <mxGeometry width="50" height="50" relative="1" as="geometry">
            <mxPoint x="-50" y="-3215" as="sourcePoint" />
            <mxPoint x="27" y="-3235" as="targetPoint" />
          </mxGeometry>
        </mxCell>
        <mxCell id="0WpfNRxVd8SMMB5D23eY-78" value="" style="endArrow=none;html=1;rounded=0;exitX=1;exitY=0.5;exitDx=0;exitDy=0;entryX=0;entryY=0.5;entryDx=0;entryDy=0;" parent="1" source="CE21XfU1R8qpKtoGvkG8-49" target="oji7Lh0gevjrnALUTzUG-60" edge="1">
          <mxGeometry width="50" height="50" relative="1" as="geometry">
            <mxPoint x="-40" y="-3205" as="sourcePoint" />
            <mxPoint x="37" y="-3225" as="targetPoint" />
          </mxGeometry>
        </mxCell>
        <mxCell id="0WpfNRxVd8SMMB5D23eY-79" value="" style="endArrow=none;html=1;rounded=0;exitX=1;exitY=0.5;exitDx=0;exitDy=0;entryX=0;entryY=0.5;entryDx=0;entryDy=0;" parent="1" source="CE21XfU1R8qpKtoGvkG8-49" target="oji7Lh0gevjrnALUTzUG-62" edge="1">
          <mxGeometry width="50" height="50" relative="1" as="geometry">
            <mxPoint x="-30" y="-3195" as="sourcePoint" />
            <mxPoint x="47" y="-3215" as="targetPoint" />
          </mxGeometry>
        </mxCell>
        <mxCell id="0WpfNRxVd8SMMB5D23eY-80" value="" style="endArrow=none;html=1;rounded=0;exitX=1;exitY=0.5;exitDx=0;exitDy=0;entryX=0;entryY=0.5;entryDx=0;entryDy=0;" parent="1" source="CE21XfU1R8qpKtoGvkG8-49" target="oji7Lh0gevjrnALUTzUG-64" edge="1">
          <mxGeometry width="50" height="50" relative="1" as="geometry">
            <mxPoint x="-20" y="-3185" as="sourcePoint" />
            <mxPoint x="57" y="-3205" as="targetPoint" />
          </mxGeometry>
        </mxCell>
        <mxCell id="0WpfNRxVd8SMMB5D23eY-81" value="" style="endArrow=none;html=1;rounded=0;exitX=1;exitY=0.5;exitDx=0;exitDy=0;entryX=0;entryY=0.5;entryDx=0;entryDy=0;" parent="1" source="CE21XfU1R8qpKtoGvkG8-49" target="oji7Lh0gevjrnALUTzUG-66" edge="1">
          <mxGeometry width="50" height="50" relative="1" as="geometry">
            <mxPoint x="-10" y="-3175" as="sourcePoint" />
            <mxPoint x="67" y="-3195" as="targetPoint" />
          </mxGeometry>
        </mxCell>
        <mxCell id="0WpfNRxVd8SMMB5D23eY-82" value="" style="endArrow=none;html=1;rounded=0;exitX=1;exitY=0.5;exitDx=0;exitDy=0;entryX=0;entryY=0.5;entryDx=0;entryDy=0;" parent="1" source="CE21XfU1R8qpKtoGvkG8-49" target="oji7Lh0gevjrnALUTzUG-68" edge="1">
          <mxGeometry width="50" height="50" relative="1" as="geometry">
            <mxPoint y="-3165" as="sourcePoint" />
            <mxPoint x="36" y="-3319" as="targetPoint" />
          </mxGeometry>
        </mxCell>
        <mxCell id="0WpfNRxVd8SMMB5D23eY-83" value="" style="endArrow=none;html=1;rounded=0;exitX=1;exitY=0.5;exitDx=0;exitDy=0;entryX=0;entryY=0.5;entryDx=0;entryDy=0;" parent="1" source="CE21XfU1R8qpKtoGvkG8-49" target="oji7Lh0gevjrnALUTzUG-70" edge="1">
          <mxGeometry width="50" height="50" relative="1" as="geometry">
            <mxPoint x="10" y="-3155" as="sourcePoint" />
            <mxPoint x="87" y="-3175" as="targetPoint" />
          </mxGeometry>
        </mxCell>
        <mxCell id="0WpfNRxVd8SMMB5D23eY-84" value="" style="endArrow=none;html=1;rounded=0;exitX=1;exitY=0.5;exitDx=0;exitDy=0;entryX=0;entryY=0.5;entryDx=0;entryDy=0;" parent="1" source="CE21XfU1R8qpKtoGvkG8-49" target="oji7Lh0gevjrnALUTzUG-72" edge="1">
          <mxGeometry width="50" height="50" relative="1" as="geometry">
            <mxPoint x="20" y="-3145" as="sourcePoint" />
            <mxPoint x="97" y="-3165" as="targetPoint" />
          </mxGeometry>
        </mxCell>
        <mxCell id="0WpfNRxVd8SMMB5D23eY-85" value="" style="endArrow=none;html=1;rounded=0;exitX=1;exitY=0.5;exitDx=0;exitDy=0;entryX=0;entryY=0.5;entryDx=0;entryDy=0;" parent="1" source="CE21XfU1R8qpKtoGvkG8-49" target="oji7Lh0gevjrnALUTzUG-74" edge="1">
          <mxGeometry width="50" height="50" relative="1" as="geometry">
            <mxPoint x="30" y="-3135" as="sourcePoint" />
            <mxPoint x="107" y="-3155" as="targetPoint" />
          </mxGeometry>
        </mxCell>
        <mxCell id="0WpfNRxVd8SMMB5D23eY-86" value="" style="endArrow=none;html=1;rounded=0;exitX=1;exitY=0.5;exitDx=0;exitDy=0;entryX=0;entryY=0.5;entryDx=0;entryDy=0;" parent="1" source="CE21XfU1R8qpKtoGvkG8-49" target="oji7Lh0gevjrnALUTzUG-76" edge="1">
          <mxGeometry width="50" height="50" relative="1" as="geometry">
            <mxPoint x="40" y="-3125" as="sourcePoint" />
            <mxPoint x="117" y="-3145" as="targetPoint" />
          </mxGeometry>
        </mxCell>
        <mxCell id="0WpfNRxVd8SMMB5D23eY-87" value="" style="endArrow=none;html=1;rounded=0;exitX=1;exitY=0.5;exitDx=0;exitDy=0;entryX=0;entryY=0.5;entryDx=0;entryDy=0;" parent="1" source="CE21XfU1R8qpKtoGvkG8-49" target="oji7Lh0gevjrnALUTzUG-78" edge="1">
          <mxGeometry width="50" height="50" relative="1" as="geometry">
            <mxPoint x="50" y="-3115" as="sourcePoint" />
            <mxPoint x="127" y="-3135" as="targetPoint" />
          </mxGeometry>
        </mxCell>
        <mxCell id="0WpfNRxVd8SMMB5D23eY-88" value="" style="endArrow=none;html=1;rounded=0;exitX=1;exitY=0.5;exitDx=0;exitDy=0;entryX=0;entryY=0.5;entryDx=0;entryDy=0;" parent="1" source="CE21XfU1R8qpKtoGvkG8-49" target="oji7Lh0gevjrnALUTzUG-80" edge="1">
          <mxGeometry width="50" height="50" relative="1" as="geometry">
            <mxPoint x="60" y="-3105" as="sourcePoint" />
            <mxPoint x="137" y="-3125" as="targetPoint" />
          </mxGeometry>
        </mxCell>
        <mxCell id="0WpfNRxVd8SMMB5D23eY-89" value="" style="endArrow=none;html=1;rounded=0;exitX=1;exitY=0.5;exitDx=0;exitDy=0;entryX=0;entryY=0.5;entryDx=0;entryDy=0;" parent="1" source="CE21XfU1R8qpKtoGvkG8-49" target="oji7Lh0gevjrnALUTzUG-82" edge="1">
          <mxGeometry width="50" height="50" relative="1" as="geometry">
            <mxPoint x="70" y="-3095" as="sourcePoint" />
            <mxPoint x="147" y="-3115" as="targetPoint" />
          </mxGeometry>
        </mxCell>
        <mxCell id="0WpfNRxVd8SMMB5D23eY-90" value="" style="endArrow=none;html=1;rounded=0;exitX=1;exitY=0.5;exitDx=0;exitDy=0;entryX=0;entryY=0.5;entryDx=0;entryDy=0;" parent="1" source="CE21XfU1R8qpKtoGvkG8-49" target="oji7Lh0gevjrnALUTzUG-84" edge="1">
          <mxGeometry width="50" height="50" relative="1" as="geometry">
            <mxPoint x="80" y="-3085" as="sourcePoint" />
            <mxPoint x="157" y="-3105" as="targetPoint" />
          </mxGeometry>
        </mxCell>
        <mxCell id="0WpfNRxVd8SMMB5D23eY-91" value="" style="endArrow=none;html=1;rounded=0;exitX=1;exitY=0.5;exitDx=0;exitDy=0;entryX=0;entryY=0.5;entryDx=0;entryDy=0;" parent="1" source="CE21XfU1R8qpKtoGvkG8-49" target="oji7Lh0gevjrnALUTzUG-86" edge="1">
          <mxGeometry width="50" height="50" relative="1" as="geometry">
            <mxPoint x="90" y="-3075" as="sourcePoint" />
            <mxPoint x="167" y="-3095" as="targetPoint" />
          </mxGeometry>
        </mxCell>
        <mxCell id="0WpfNRxVd8SMMB5D23eY-92" value="" style="endArrow=none;html=1;rounded=0;exitX=1;exitY=0.5;exitDx=0;exitDy=0;entryX=0;entryY=0.5;entryDx=0;entryDy=0;" parent="1" source="CE21XfU1R8qpKtoGvkG8-51" target="oji7Lh0gevjrnALUTzUG-60" edge="1">
          <mxGeometry width="50" height="50" relative="1" as="geometry">
            <mxPoint x="-135" y="-3367" as="sourcePoint" />
            <mxPoint x="-58" y="-3387" as="targetPoint" />
          </mxGeometry>
        </mxCell>
        <mxCell id="0WpfNRxVd8SMMB5D23eY-93" value="" style="endArrow=none;html=1;rounded=0;exitX=1;exitY=0.5;exitDx=0;exitDy=0;entryX=0;entryY=0.5;entryDx=0;entryDy=0;" parent="1" source="CE21XfU1R8qpKtoGvkG8-51" target="oji7Lh0gevjrnALUTzUG-58" edge="1">
          <mxGeometry width="50" height="50" relative="1" as="geometry">
            <mxPoint x="-125" y="-3357" as="sourcePoint" />
            <mxPoint x="-48" y="-3377" as="targetPoint" />
          </mxGeometry>
        </mxCell>
        <mxCell id="0WpfNRxVd8SMMB5D23eY-94" value="" style="endArrow=none;html=1;rounded=0;exitX=1;exitY=0.5;exitDx=0;exitDy=0;entryX=0;entryY=0.5;entryDx=0;entryDy=0;" parent="1" source="CE21XfU1R8qpKtoGvkG8-51" target="oji7Lh0gevjrnALUTzUG-62" edge="1">
          <mxGeometry width="50" height="50" relative="1" as="geometry">
            <mxPoint x="-115" y="-3347" as="sourcePoint" />
            <mxPoint x="-38" y="-3367" as="targetPoint" />
          </mxGeometry>
        </mxCell>
        <mxCell id="0WpfNRxVd8SMMB5D23eY-95" value="" style="endArrow=none;html=1;rounded=0;exitX=1;exitY=0.5;exitDx=0;exitDy=0;entryX=0;entryY=0.5;entryDx=0;entryDy=0;" parent="1" source="CE21XfU1R8qpKtoGvkG8-51" target="oji7Lh0gevjrnALUTzUG-64" edge="1">
          <mxGeometry width="50" height="50" relative="1" as="geometry">
            <mxPoint x="-105" y="-3337" as="sourcePoint" />
            <mxPoint x="-28" y="-3357" as="targetPoint" />
          </mxGeometry>
        </mxCell>
        <mxCell id="0WpfNRxVd8SMMB5D23eY-96" value="" style="endArrow=none;html=1;rounded=0;exitX=1;exitY=0.5;exitDx=0;exitDy=0;entryX=0;entryY=0.5;entryDx=0;entryDy=0;" parent="1" source="CE21XfU1R8qpKtoGvkG8-51" target="oji7Lh0gevjrnALUTzUG-66" edge="1">
          <mxGeometry width="50" height="50" relative="1" as="geometry">
            <mxPoint x="-95" y="-3327" as="sourcePoint" />
            <mxPoint x="-18" y="-3347" as="targetPoint" />
          </mxGeometry>
        </mxCell>
        <mxCell id="0WpfNRxVd8SMMB5D23eY-97" value="" style="endArrow=none;html=1;rounded=0;exitX=1;exitY=0.5;exitDx=0;exitDy=0;entryX=0;entryY=0.5;entryDx=0;entryDy=0;" parent="1" source="CE21XfU1R8qpKtoGvkG8-51" target="oji7Lh0gevjrnALUTzUG-68" edge="1">
          <mxGeometry width="50" height="50" relative="1" as="geometry">
            <mxPoint x="-85" y="-3317" as="sourcePoint" />
            <mxPoint x="-8" y="-3337" as="targetPoint" />
          </mxGeometry>
        </mxCell>
        <mxCell id="0WpfNRxVd8SMMB5D23eY-98" value="" style="endArrow=none;html=1;rounded=0;exitX=1;exitY=0.5;exitDx=0;exitDy=0;entryX=0;entryY=0.5;entryDx=0;entryDy=0;" parent="1" source="CE21XfU1R8qpKtoGvkG8-51" target="oji7Lh0gevjrnALUTzUG-70" edge="1">
          <mxGeometry width="50" height="50" relative="1" as="geometry">
            <mxPoint x="-75" y="-3307" as="sourcePoint" />
            <mxPoint x="2" y="-3327" as="targetPoint" />
          </mxGeometry>
        </mxCell>
        <mxCell id="0WpfNRxVd8SMMB5D23eY-99" value="" style="endArrow=none;html=1;rounded=0;exitX=1;exitY=0.5;exitDx=0;exitDy=0;entryX=0;entryY=0.5;entryDx=0;entryDy=0;" parent="1" source="CE21XfU1R8qpKtoGvkG8-51" target="oji7Lh0gevjrnALUTzUG-72" edge="1">
          <mxGeometry width="50" height="50" relative="1" as="geometry">
            <mxPoint x="-65" y="-3297" as="sourcePoint" />
            <mxPoint x="12" y="-3317" as="targetPoint" />
          </mxGeometry>
        </mxCell>
        <mxCell id="0WpfNRxVd8SMMB5D23eY-100" value="" style="endArrow=none;html=1;rounded=0;exitX=1;exitY=0.5;exitDx=0;exitDy=0;entryX=0;entryY=0.5;entryDx=0;entryDy=0;" parent="1" source="CE21XfU1R8qpKtoGvkG8-51" target="oji7Lh0gevjrnALUTzUG-74" edge="1">
          <mxGeometry width="50" height="50" relative="1" as="geometry">
            <mxPoint x="-55" y="-3287" as="sourcePoint" />
            <mxPoint x="22" y="-3307" as="targetPoint" />
          </mxGeometry>
        </mxCell>
        <mxCell id="0WpfNRxVd8SMMB5D23eY-101" value="" style="endArrow=none;html=1;rounded=0;exitX=1;exitY=0.5;exitDx=0;exitDy=0;entryX=0;entryY=0.5;entryDx=0;entryDy=0;" parent="1" source="CE21XfU1R8qpKtoGvkG8-51" target="oji7Lh0gevjrnALUTzUG-76" edge="1">
          <mxGeometry width="50" height="50" relative="1" as="geometry">
            <mxPoint x="-45" y="-3277" as="sourcePoint" />
            <mxPoint x="32" y="-3297" as="targetPoint" />
          </mxGeometry>
        </mxCell>
        <mxCell id="0WpfNRxVd8SMMB5D23eY-102" value="" style="endArrow=none;html=1;rounded=0;exitX=1;exitY=0.5;exitDx=0;exitDy=0;entryX=0;entryY=0.5;entryDx=0;entryDy=0;" parent="1" source="CE21XfU1R8qpKtoGvkG8-51" target="oji7Lh0gevjrnALUTzUG-78" edge="1">
          <mxGeometry width="50" height="50" relative="1" as="geometry">
            <mxPoint x="-35" y="-3267" as="sourcePoint" />
            <mxPoint x="42" y="-3287" as="targetPoint" />
          </mxGeometry>
        </mxCell>
        <mxCell id="0WpfNRxVd8SMMB5D23eY-103" value="" style="endArrow=none;html=1;rounded=0;exitX=1;exitY=0.5;exitDx=0;exitDy=0;entryX=0;entryY=0.5;entryDx=0;entryDy=0;" parent="1" source="CE21XfU1R8qpKtoGvkG8-51" target="oji7Lh0gevjrnALUTzUG-80" edge="1">
          <mxGeometry width="50" height="50" relative="1" as="geometry">
            <mxPoint x="-25" y="-3257" as="sourcePoint" />
            <mxPoint x="52" y="-3277" as="targetPoint" />
          </mxGeometry>
        </mxCell>
        <mxCell id="0WpfNRxVd8SMMB5D23eY-104" value="" style="endArrow=none;html=1;rounded=0;exitX=1;exitY=0.5;exitDx=0;exitDy=0;entryX=0;entryY=0.5;entryDx=0;entryDy=0;" parent="1" source="CE21XfU1R8qpKtoGvkG8-51" target="oji7Lh0gevjrnALUTzUG-82" edge="1">
          <mxGeometry width="50" height="50" relative="1" as="geometry">
            <mxPoint x="-15" y="-3247" as="sourcePoint" />
            <mxPoint x="62" y="-3267" as="targetPoint" />
          </mxGeometry>
        </mxCell>
        <mxCell id="0WpfNRxVd8SMMB5D23eY-105" value="" style="endArrow=none;html=1;rounded=0;exitX=1;exitY=0.5;exitDx=0;exitDy=0;entryX=0;entryY=0.5;entryDx=0;entryDy=0;" parent="1" source="CE21XfU1R8qpKtoGvkG8-51" target="oji7Lh0gevjrnALUTzUG-84" edge="1">
          <mxGeometry width="50" height="50" relative="1" as="geometry">
            <mxPoint x="-5" y="-3237" as="sourcePoint" />
            <mxPoint x="72" y="-3257" as="targetPoint" />
          </mxGeometry>
        </mxCell>
        <mxCell id="0WpfNRxVd8SMMB5D23eY-106" value="" style="endArrow=none;html=1;rounded=0;exitX=1;exitY=0.5;exitDx=0;exitDy=0;entryX=0;entryY=0.5;entryDx=0;entryDy=0;" parent="1" source="CE21XfU1R8qpKtoGvkG8-51" target="oji7Lh0gevjrnALUTzUG-86" edge="1">
          <mxGeometry width="50" height="50" relative="1" as="geometry">
            <mxPoint x="5" y="-3227" as="sourcePoint" />
            <mxPoint x="82" y="-3247" as="targetPoint" />
          </mxGeometry>
        </mxCell>
        <mxCell id="0WpfNRxVd8SMMB5D23eY-107" value="" style="endArrow=none;html=1;rounded=0;exitX=1;exitY=0.5;exitDx=0;exitDy=0;entryX=0;entryY=0.5;entryDx=0;entryDy=0;" parent="1" source="CE21XfU1R8qpKtoGvkG8-53" target="oji7Lh0gevjrnALUTzUG-58" edge="1">
          <mxGeometry width="50" height="50" relative="1" as="geometry">
            <mxPoint x="-147" y="-3178" as="sourcePoint" />
            <mxPoint x="-70" y="-3198" as="targetPoint" />
          </mxGeometry>
        </mxCell>
        <mxCell id="0WpfNRxVd8SMMB5D23eY-108" value="" style="endArrow=none;html=1;rounded=0;exitX=1;exitY=0.5;exitDx=0;exitDy=0;entryX=0;entryY=0.5;entryDx=0;entryDy=0;" parent="1" source="CE21XfU1R8qpKtoGvkG8-53" target="oji7Lh0gevjrnALUTzUG-60" edge="1">
          <mxGeometry width="50" height="50" relative="1" as="geometry">
            <mxPoint x="-137" y="-3168" as="sourcePoint" />
            <mxPoint x="-60" y="-3188" as="targetPoint" />
          </mxGeometry>
        </mxCell>
        <mxCell id="0WpfNRxVd8SMMB5D23eY-109" value="" style="endArrow=none;html=1;rounded=0;exitX=1;exitY=0.5;exitDx=0;exitDy=0;entryX=0;entryY=0.5;entryDx=0;entryDy=0;" parent="1" source="CE21XfU1R8qpKtoGvkG8-53" target="oji7Lh0gevjrnALUTzUG-62" edge="1">
          <mxGeometry width="50" height="50" relative="1" as="geometry">
            <mxPoint x="-127" y="-3158" as="sourcePoint" />
            <mxPoint x="-50" y="-3178" as="targetPoint" />
          </mxGeometry>
        </mxCell>
        <mxCell id="0WpfNRxVd8SMMB5D23eY-110" value="" style="endArrow=none;html=1;rounded=0;exitX=1;exitY=0.5;exitDx=0;exitDy=0;entryX=0;entryY=0.5;entryDx=0;entryDy=0;" parent="1" source="CE21XfU1R8qpKtoGvkG8-53" target="oji7Lh0gevjrnALUTzUG-64" edge="1">
          <mxGeometry width="50" height="50" relative="1" as="geometry">
            <mxPoint x="-117" y="-3148" as="sourcePoint" />
            <mxPoint x="-40" y="-3168" as="targetPoint" />
          </mxGeometry>
        </mxCell>
        <mxCell id="0WpfNRxVd8SMMB5D23eY-111" value="" style="endArrow=none;html=1;rounded=0;exitX=1;exitY=0.5;exitDx=0;exitDy=0;entryX=0;entryY=0.5;entryDx=0;entryDy=0;" parent="1" source="CE21XfU1R8qpKtoGvkG8-53" target="oji7Lh0gevjrnALUTzUG-66" edge="1">
          <mxGeometry width="50" height="50" relative="1" as="geometry">
            <mxPoint x="-107" y="-3138" as="sourcePoint" />
            <mxPoint x="-30" y="-3158" as="targetPoint" />
          </mxGeometry>
        </mxCell>
        <mxCell id="0WpfNRxVd8SMMB5D23eY-112" value="" style="endArrow=none;html=1;rounded=0;exitX=1;exitY=0.5;exitDx=0;exitDy=0;entryX=0;entryY=0.5;entryDx=0;entryDy=0;" parent="1" source="CE21XfU1R8qpKtoGvkG8-53" target="oji7Lh0gevjrnALUTzUG-68" edge="1">
          <mxGeometry width="50" height="50" relative="1" as="geometry">
            <mxPoint x="-97" y="-3128" as="sourcePoint" />
            <mxPoint x="-20" y="-3148" as="targetPoint" />
          </mxGeometry>
        </mxCell>
        <mxCell id="0WpfNRxVd8SMMB5D23eY-113" value="" style="endArrow=none;html=1;rounded=0;exitX=1;exitY=0.5;exitDx=0;exitDy=0;entryX=0;entryY=0.5;entryDx=0;entryDy=0;" parent="1" source="CE21XfU1R8qpKtoGvkG8-53" target="oji7Lh0gevjrnALUTzUG-70" edge="1">
          <mxGeometry width="50" height="50" relative="1" as="geometry">
            <mxPoint x="-87" y="-3118" as="sourcePoint" />
            <mxPoint x="35" y="-3321" as="targetPoint" />
          </mxGeometry>
        </mxCell>
        <mxCell id="0WpfNRxVd8SMMB5D23eY-114" value="" style="endArrow=none;html=1;rounded=0;exitX=1;exitY=0.5;exitDx=0;exitDy=0;entryX=0;entryY=0.5;entryDx=0;entryDy=0;" parent="1" source="CE21XfU1R8qpKtoGvkG8-53" target="oji7Lh0gevjrnALUTzUG-72" edge="1">
          <mxGeometry width="50" height="50" relative="1" as="geometry">
            <mxPoint x="-77" y="-3108" as="sourcePoint" />
            <mxPoint y="-3128" as="targetPoint" />
          </mxGeometry>
        </mxCell>
        <mxCell id="0WpfNRxVd8SMMB5D23eY-115" value="" style="endArrow=none;html=1;rounded=0;exitX=1;exitY=0.5;exitDx=0;exitDy=0;entryX=0;entryY=0.5;entryDx=0;entryDy=0;" parent="1" source="CE21XfU1R8qpKtoGvkG8-53" target="oji7Lh0gevjrnALUTzUG-74" edge="1">
          <mxGeometry width="50" height="50" relative="1" as="geometry">
            <mxPoint x="-67" y="-3098" as="sourcePoint" />
            <mxPoint x="10" y="-3118" as="targetPoint" />
          </mxGeometry>
        </mxCell>
        <mxCell id="0WpfNRxVd8SMMB5D23eY-116" value="" style="endArrow=none;html=1;rounded=0;exitX=1;exitY=0.5;exitDx=0;exitDy=0;entryX=0;entryY=0.5;entryDx=0;entryDy=0;" parent="1" source="CE21XfU1R8qpKtoGvkG8-53" target="oji7Lh0gevjrnALUTzUG-76" edge="1">
          <mxGeometry width="50" height="50" relative="1" as="geometry">
            <mxPoint x="-57" y="-3088" as="sourcePoint" />
            <mxPoint x="20" y="-3108" as="targetPoint" />
          </mxGeometry>
        </mxCell>
        <mxCell id="0WpfNRxVd8SMMB5D23eY-117" value="" style="endArrow=none;html=1;rounded=0;exitX=1;exitY=0.5;exitDx=0;exitDy=0;entryX=0;entryY=0.5;entryDx=0;entryDy=0;" parent="1" source="CE21XfU1R8qpKtoGvkG8-53" target="oji7Lh0gevjrnALUTzUG-78" edge="1">
          <mxGeometry width="50" height="50" relative="1" as="geometry">
            <mxPoint x="-47" y="-3078" as="sourcePoint" />
            <mxPoint x="30" y="-3098" as="targetPoint" />
          </mxGeometry>
        </mxCell>
        <mxCell id="0WpfNRxVd8SMMB5D23eY-118" value="" style="endArrow=none;html=1;rounded=0;exitX=1;exitY=0.5;exitDx=0;exitDy=0;entryX=0;entryY=0.5;entryDx=0;entryDy=0;" parent="1" source="CE21XfU1R8qpKtoGvkG8-53" target="oji7Lh0gevjrnALUTzUG-80" edge="1">
          <mxGeometry width="50" height="50" relative="1" as="geometry">
            <mxPoint x="-37" y="-3068" as="sourcePoint" />
            <mxPoint x="40" y="-3088" as="targetPoint" />
          </mxGeometry>
        </mxCell>
        <mxCell id="0WpfNRxVd8SMMB5D23eY-119" value="" style="endArrow=none;html=1;rounded=0;exitX=1;exitY=0.5;exitDx=0;exitDy=0;entryX=0;entryY=0.5;entryDx=0;entryDy=0;" parent="1" source="CE21XfU1R8qpKtoGvkG8-53" target="oji7Lh0gevjrnALUTzUG-82" edge="1">
          <mxGeometry width="50" height="50" relative="1" as="geometry">
            <mxPoint x="-27" y="-3058" as="sourcePoint" />
            <mxPoint x="50" y="-3078" as="targetPoint" />
          </mxGeometry>
        </mxCell>
        <mxCell id="0WpfNRxVd8SMMB5D23eY-120" value="" style="endArrow=none;html=1;rounded=0;exitX=1;exitY=0.5;exitDx=0;exitDy=0;entryX=0;entryY=0.5;entryDx=0;entryDy=0;" parent="1" source="CE21XfU1R8qpKtoGvkG8-53" target="oji7Lh0gevjrnALUTzUG-84" edge="1">
          <mxGeometry width="50" height="50" relative="1" as="geometry">
            <mxPoint x="-17" y="-3048" as="sourcePoint" />
            <mxPoint x="60" y="-3068" as="targetPoint" />
          </mxGeometry>
        </mxCell>
        <mxCell id="0WpfNRxVd8SMMB5D23eY-121" value="" style="endArrow=none;html=1;rounded=0;exitX=1;exitY=0.5;exitDx=0;exitDy=0;entryX=0;entryY=0.5;entryDx=0;entryDy=0;" parent="1" source="CE21XfU1R8qpKtoGvkG8-53" target="oji7Lh0gevjrnALUTzUG-86" edge="1">
          <mxGeometry width="50" height="50" relative="1" as="geometry">
            <mxPoint x="-7" y="-3038" as="sourcePoint" />
            <mxPoint x="70" y="-3058" as="targetPoint" />
          </mxGeometry>
        </mxCell>
        <mxCell id="0WpfNRxVd8SMMB5D23eY-145" value="" style="endArrow=none;html=1;rounded=0;exitX=1;exitY=0.5;exitDx=0;exitDy=0;entryX=0;entryY=0.5;entryDx=0;entryDy=0;" parent="1" source="CE21XfU1R8qpKtoGvkG8-55" target="oji7Lh0gevjrnALUTzUG-58" edge="1">
          <mxGeometry width="50" height="50" relative="1" as="geometry">
            <mxPoint x="-116" y="-3137" as="sourcePoint" />
            <mxPoint x="-30" y="-3233" as="targetPoint" />
          </mxGeometry>
        </mxCell>
        <mxCell id="0WpfNRxVd8SMMB5D23eY-146" value="" style="endArrow=none;html=1;rounded=0;exitX=1;exitY=0.5;exitDx=0;exitDy=0;entryX=0;entryY=0.5;entryDx=0;entryDy=0;" parent="1" source="CE21XfU1R8qpKtoGvkG8-55" target="oji7Lh0gevjrnALUTzUG-60" edge="1">
          <mxGeometry width="50" height="50" relative="1" as="geometry">
            <mxPoint x="-106" y="-3127" as="sourcePoint" />
            <mxPoint x="-20" y="-3223" as="targetPoint" />
          </mxGeometry>
        </mxCell>
        <mxCell id="0WpfNRxVd8SMMB5D23eY-147" value="" style="endArrow=none;html=1;rounded=0;exitX=1;exitY=0.5;exitDx=0;exitDy=0;entryX=0;entryY=0.5;entryDx=0;entryDy=0;" parent="1" source="CE21XfU1R8qpKtoGvkG8-55" target="oji7Lh0gevjrnALUTzUG-62" edge="1">
          <mxGeometry width="50" height="50" relative="1" as="geometry">
            <mxPoint x="-96" y="-3117" as="sourcePoint" />
            <mxPoint x="-10" y="-3213" as="targetPoint" />
          </mxGeometry>
        </mxCell>
        <mxCell id="0WpfNRxVd8SMMB5D23eY-148" value="" style="endArrow=none;html=1;rounded=0;exitX=1;exitY=0.5;exitDx=0;exitDy=0;entryX=0;entryY=0.5;entryDx=0;entryDy=0;" parent="1" source="CE21XfU1R8qpKtoGvkG8-55" target="oji7Lh0gevjrnALUTzUG-64" edge="1">
          <mxGeometry width="50" height="50" relative="1" as="geometry">
            <mxPoint x="-86" y="-3107" as="sourcePoint" />
            <mxPoint y="-3203" as="targetPoint" />
          </mxGeometry>
        </mxCell>
        <mxCell id="0WpfNRxVd8SMMB5D23eY-149" value="" style="endArrow=none;html=1;rounded=0;exitX=1;exitY=0.5;exitDx=0;exitDy=0;entryX=0;entryY=0.5;entryDx=0;entryDy=0;" parent="1" source="CE21XfU1R8qpKtoGvkG8-55" target="oji7Lh0gevjrnALUTzUG-66" edge="1">
          <mxGeometry width="50" height="50" relative="1" as="geometry">
            <mxPoint x="-76" y="-3097" as="sourcePoint" />
            <mxPoint x="10" y="-3193" as="targetPoint" />
          </mxGeometry>
        </mxCell>
        <mxCell id="0WpfNRxVd8SMMB5D23eY-150" value="" style="endArrow=none;html=1;rounded=0;exitX=1;exitY=0.5;exitDx=0;exitDy=0;entryX=0;entryY=0.5;entryDx=0;entryDy=0;" parent="1" source="CE21XfU1R8qpKtoGvkG8-55" target="oji7Lh0gevjrnALUTzUG-68" edge="1">
          <mxGeometry width="50" height="50" relative="1" as="geometry">
            <mxPoint x="-66" y="-3087" as="sourcePoint" />
            <mxPoint x="20" y="-3183" as="targetPoint" />
          </mxGeometry>
        </mxCell>
        <mxCell id="0WpfNRxVd8SMMB5D23eY-151" value="" style="endArrow=none;html=1;rounded=0;exitX=1;exitY=0.5;exitDx=0;exitDy=0;entryX=0;entryY=0.5;entryDx=0;entryDy=0;" parent="1" source="CE21XfU1R8qpKtoGvkG8-55" target="oji7Lh0gevjrnALUTzUG-72" edge="1">
          <mxGeometry width="50" height="50" relative="1" as="geometry">
            <mxPoint x="-56" y="-3077" as="sourcePoint" />
            <mxPoint x="30" y="-3173" as="targetPoint" />
          </mxGeometry>
        </mxCell>
        <mxCell id="0WpfNRxVd8SMMB5D23eY-152" value="" style="endArrow=none;html=1;rounded=0;exitX=1;exitY=0.5;exitDx=0;exitDy=0;entryX=0;entryY=0.5;entryDx=0;entryDy=0;" parent="1" source="CE21XfU1R8qpKtoGvkG8-55" target="oji7Lh0gevjrnALUTzUG-70" edge="1">
          <mxGeometry width="50" height="50" relative="1" as="geometry">
            <mxPoint x="-46" y="-3067" as="sourcePoint" />
            <mxPoint x="-47" y="-3278" as="targetPoint" />
          </mxGeometry>
        </mxCell>
        <mxCell id="0WpfNRxVd8SMMB5D23eY-153" value="" style="endArrow=none;html=1;rounded=0;exitX=1;exitY=0.5;exitDx=0;exitDy=0;entryX=0;entryY=0.5;entryDx=0;entryDy=0;" parent="1" source="CE21XfU1R8qpKtoGvkG8-55" target="oji7Lh0gevjrnALUTzUG-74" edge="1">
          <mxGeometry width="50" height="50" relative="1" as="geometry">
            <mxPoint x="-36" y="-3057" as="sourcePoint" />
            <mxPoint x="50" y="-3153" as="targetPoint" />
          </mxGeometry>
        </mxCell>
        <mxCell id="0WpfNRxVd8SMMB5D23eY-154" value="" style="endArrow=none;html=1;rounded=0;exitX=1;exitY=0.5;exitDx=0;exitDy=0;entryX=0;entryY=0.5;entryDx=0;entryDy=0;" parent="1" source="CE21XfU1R8qpKtoGvkG8-55" target="oji7Lh0gevjrnALUTzUG-76" edge="1">
          <mxGeometry width="50" height="50" relative="1" as="geometry">
            <mxPoint x="-26" y="-3047" as="sourcePoint" />
            <mxPoint x="60" y="-3143" as="targetPoint" />
          </mxGeometry>
        </mxCell>
        <mxCell id="0WpfNRxVd8SMMB5D23eY-155" value="" style="endArrow=none;html=1;rounded=0;exitX=1;exitY=0.5;exitDx=0;exitDy=0;entryX=0;entryY=0.5;entryDx=0;entryDy=0;" parent="1" source="CE21XfU1R8qpKtoGvkG8-55" target="oji7Lh0gevjrnALUTzUG-78" edge="1">
          <mxGeometry width="50" height="50" relative="1" as="geometry">
            <mxPoint x="-16" y="-3037" as="sourcePoint" />
            <mxPoint x="70" y="-3133" as="targetPoint" />
          </mxGeometry>
        </mxCell>
        <mxCell id="0WpfNRxVd8SMMB5D23eY-156" value="" style="endArrow=none;html=1;rounded=0;exitX=1;exitY=0.5;exitDx=0;exitDy=0;entryX=0;entryY=0.5;entryDx=0;entryDy=0;" parent="1" source="CE21XfU1R8qpKtoGvkG8-55" target="oji7Lh0gevjrnALUTzUG-80" edge="1">
          <mxGeometry width="50" height="50" relative="1" as="geometry">
            <mxPoint x="-6" y="-3027" as="sourcePoint" />
            <mxPoint x="80" y="-3123" as="targetPoint" />
          </mxGeometry>
        </mxCell>
        <mxCell id="0WpfNRxVd8SMMB5D23eY-157" value="" style="endArrow=none;html=1;rounded=0;exitX=1;exitY=0.5;exitDx=0;exitDy=0;entryX=0;entryY=0.5;entryDx=0;entryDy=0;" parent="1" source="CE21XfU1R8qpKtoGvkG8-55" target="oji7Lh0gevjrnALUTzUG-82" edge="1">
          <mxGeometry width="50" height="50" relative="1" as="geometry">
            <mxPoint x="4" y="-3017" as="sourcePoint" />
            <mxPoint x="90" y="-3113" as="targetPoint" />
          </mxGeometry>
        </mxCell>
        <mxCell id="0WpfNRxVd8SMMB5D23eY-158" value="" style="endArrow=none;html=1;rounded=0;exitX=1;exitY=0.5;exitDx=0;exitDy=0;entryX=0;entryY=0.5;entryDx=0;entryDy=0;" parent="1" source="CE21XfU1R8qpKtoGvkG8-55" target="oji7Lh0gevjrnALUTzUG-84" edge="1">
          <mxGeometry width="50" height="50" relative="1" as="geometry">
            <mxPoint x="14" y="-3007" as="sourcePoint" />
            <mxPoint x="100" y="-3103" as="targetPoint" />
          </mxGeometry>
        </mxCell>
        <mxCell id="0WpfNRxVd8SMMB5D23eY-159" value="" style="endArrow=none;html=1;rounded=0;exitX=1;exitY=0.5;exitDx=0;exitDy=0;entryX=0;entryY=0.5;entryDx=0;entryDy=0;" parent="1" source="CE21XfU1R8qpKtoGvkG8-55" target="oji7Lh0gevjrnALUTzUG-86" edge="1">
          <mxGeometry width="50" height="50" relative="1" as="geometry">
            <mxPoint x="24" y="-2997" as="sourcePoint" />
            <mxPoint x="110" y="-3093" as="targetPoint" />
          </mxGeometry>
        </mxCell>
        <mxCell id="0WpfNRxVd8SMMB5D23eY-160" value="" style="endArrow=none;html=1;rounded=0;exitX=1;exitY=0.5;exitDx=0;exitDy=0;entryX=0;entryY=0.5;entryDx=0;entryDy=0;" parent="1" source="CE21XfU1R8qpKtoGvkG8-57" target="oji7Lh0gevjrnALUTzUG-58" edge="1">
          <mxGeometry width="50" height="50" relative="1" as="geometry">
            <mxPoint x="34" y="-2987" as="sourcePoint" />
            <mxPoint x="120" y="-3083" as="targetPoint" />
          </mxGeometry>
        </mxCell>
        <mxCell id="0WpfNRxVd8SMMB5D23eY-161" value="" style="endArrow=none;html=1;rounded=0;exitX=1;exitY=0.5;exitDx=0;exitDy=0;entryX=0;entryY=0.5;entryDx=0;entryDy=0;" parent="1" source="CE21XfU1R8qpKtoGvkG8-57" target="oji7Lh0gevjrnALUTzUG-60" edge="1">
          <mxGeometry width="50" height="50" relative="1" as="geometry">
            <mxPoint x="44" y="-2977" as="sourcePoint" />
            <mxPoint x="130" y="-3073" as="targetPoint" />
          </mxGeometry>
        </mxCell>
        <mxCell id="0WpfNRxVd8SMMB5D23eY-162" value="" style="endArrow=none;html=1;rounded=0;exitX=1;exitY=0.5;exitDx=0;exitDy=0;entryX=0;entryY=0.5;entryDx=0;entryDy=0;" parent="1" source="CE21XfU1R8qpKtoGvkG8-57" target="oji7Lh0gevjrnALUTzUG-62" edge="1">
          <mxGeometry width="50" height="50" relative="1" as="geometry">
            <mxPoint x="54" y="-2967" as="sourcePoint" />
            <mxPoint x="140" y="-3063" as="targetPoint" />
          </mxGeometry>
        </mxCell>
        <mxCell id="0WpfNRxVd8SMMB5D23eY-163" value="" style="endArrow=none;html=1;rounded=0;exitX=1;exitY=0.5;exitDx=0;exitDy=0;entryX=0;entryY=0.5;entryDx=0;entryDy=0;" parent="1" source="CE21XfU1R8qpKtoGvkG8-57" target="oji7Lh0gevjrnALUTzUG-64" edge="1">
          <mxGeometry width="50" height="50" relative="1" as="geometry">
            <mxPoint x="-129" y="-2974" as="sourcePoint" />
            <mxPoint x="-43" y="-3070" as="targetPoint" />
          </mxGeometry>
        </mxCell>
        <mxCell id="0WpfNRxVd8SMMB5D23eY-164" value="" style="endArrow=none;html=1;rounded=0;exitX=1;exitY=0.5;exitDx=0;exitDy=0;entryX=0;entryY=0.5;entryDx=0;entryDy=0;" parent="1" source="CE21XfU1R8qpKtoGvkG8-57" target="oji7Lh0gevjrnALUTzUG-66" edge="1">
          <mxGeometry width="50" height="50" relative="1" as="geometry">
            <mxPoint x="-119" y="-2964" as="sourcePoint" />
            <mxPoint x="-33" y="-3060" as="targetPoint" />
          </mxGeometry>
        </mxCell>
        <mxCell id="0WpfNRxVd8SMMB5D23eY-165" value="" style="endArrow=none;html=1;rounded=0;exitX=1;exitY=0.5;exitDx=0;exitDy=0;entryX=0;entryY=0.5;entryDx=0;entryDy=0;" parent="1" source="CE21XfU1R8qpKtoGvkG8-57" target="oji7Lh0gevjrnALUTzUG-68" edge="1">
          <mxGeometry width="50" height="50" relative="1" as="geometry">
            <mxPoint x="-109" y="-2954" as="sourcePoint" />
            <mxPoint x="-23" y="-3050" as="targetPoint" />
          </mxGeometry>
        </mxCell>
        <mxCell id="0WpfNRxVd8SMMB5D23eY-166" value="" style="endArrow=none;html=1;rounded=0;exitX=1;exitY=0.5;exitDx=0;exitDy=0;entryX=0;entryY=0.5;entryDx=0;entryDy=0;" parent="1" source="CE21XfU1R8qpKtoGvkG8-57" target="oji7Lh0gevjrnALUTzUG-70" edge="1">
          <mxGeometry width="50" height="50" relative="1" as="geometry">
            <mxPoint x="-99" y="-2944" as="sourcePoint" />
            <mxPoint x="-13" y="-3040" as="targetPoint" />
          </mxGeometry>
        </mxCell>
        <mxCell id="0WpfNRxVd8SMMB5D23eY-167" value="" style="endArrow=none;html=1;rounded=0;exitX=1;exitY=0.5;exitDx=0;exitDy=0;entryX=0;entryY=0.5;entryDx=0;entryDy=0;" parent="1" source="CE21XfU1R8qpKtoGvkG8-57" target="oji7Lh0gevjrnALUTzUG-72" edge="1">
          <mxGeometry width="50" height="50" relative="1" as="geometry">
            <mxPoint x="-89" y="-2934" as="sourcePoint" />
            <mxPoint x="-3" y="-3030" as="targetPoint" />
          </mxGeometry>
        </mxCell>
        <mxCell id="0WpfNRxVd8SMMB5D23eY-168" value="" style="endArrow=none;html=1;rounded=0;exitX=1;exitY=0.5;exitDx=0;exitDy=0;entryX=0;entryY=0.5;entryDx=0;entryDy=0;" parent="1" source="CE21XfU1R8qpKtoGvkG8-57" target="oji7Lh0gevjrnALUTzUG-74" edge="1">
          <mxGeometry width="50" height="50" relative="1" as="geometry">
            <mxPoint x="-79" y="-2924" as="sourcePoint" />
            <mxPoint x="7" y="-3020" as="targetPoint" />
          </mxGeometry>
        </mxCell>
        <mxCell id="0WpfNRxVd8SMMB5D23eY-169" value="" style="endArrow=none;html=1;rounded=0;exitX=1;exitY=0.5;exitDx=0;exitDy=0;entryX=0;entryY=0.5;entryDx=0;entryDy=0;" parent="1" source="CE21XfU1R8qpKtoGvkG8-57" target="oji7Lh0gevjrnALUTzUG-76" edge="1">
          <mxGeometry width="50" height="50" relative="1" as="geometry">
            <mxPoint x="-69" y="-2914" as="sourcePoint" />
            <mxPoint x="17" y="-3010" as="targetPoint" />
          </mxGeometry>
        </mxCell>
        <mxCell id="0WpfNRxVd8SMMB5D23eY-170" value="" style="endArrow=none;html=1;rounded=0;exitX=1;exitY=0.5;exitDx=0;exitDy=0;entryX=0;entryY=0.5;entryDx=0;entryDy=0;" parent="1" source="CE21XfU1R8qpKtoGvkG8-57" target="oji7Lh0gevjrnALUTzUG-78" edge="1">
          <mxGeometry width="50" height="50" relative="1" as="geometry">
            <mxPoint x="-59" y="-2904" as="sourcePoint" />
            <mxPoint x="27" y="-3000" as="targetPoint" />
          </mxGeometry>
        </mxCell>
        <mxCell id="0WpfNRxVd8SMMB5D23eY-171" value="" style="endArrow=none;html=1;rounded=0;exitX=1;exitY=0.5;exitDx=0;exitDy=0;entryX=0;entryY=0.5;entryDx=0;entryDy=0;" parent="1" source="CE21XfU1R8qpKtoGvkG8-57" target="oji7Lh0gevjrnALUTzUG-80" edge="1">
          <mxGeometry width="50" height="50" relative="1" as="geometry">
            <mxPoint x="-49" y="-2894" as="sourcePoint" />
            <mxPoint x="37" y="-2990" as="targetPoint" />
          </mxGeometry>
        </mxCell>
        <mxCell id="0WpfNRxVd8SMMB5D23eY-172" value="" style="endArrow=none;html=1;rounded=0;exitX=1;exitY=0.5;exitDx=0;exitDy=0;entryX=0;entryY=0.5;entryDx=0;entryDy=0;" parent="1" source="CE21XfU1R8qpKtoGvkG8-57" target="oji7Lh0gevjrnALUTzUG-82" edge="1">
          <mxGeometry width="50" height="50" relative="1" as="geometry">
            <mxPoint x="-39" y="-2884" as="sourcePoint" />
            <mxPoint x="47" y="-2980" as="targetPoint" />
          </mxGeometry>
        </mxCell>
        <mxCell id="0WpfNRxVd8SMMB5D23eY-173" value="" style="endArrow=none;html=1;rounded=0;exitX=1;exitY=0.5;exitDx=0;exitDy=0;entryX=0;entryY=0.5;entryDx=0;entryDy=0;" parent="1" source="CE21XfU1R8qpKtoGvkG8-57" target="oji7Lh0gevjrnALUTzUG-84" edge="1">
          <mxGeometry width="50" height="50" relative="1" as="geometry">
            <mxPoint x="-29" y="-2874" as="sourcePoint" />
            <mxPoint x="57" y="-2970" as="targetPoint" />
          </mxGeometry>
        </mxCell>
        <mxCell id="0WpfNRxVd8SMMB5D23eY-174" value="" style="endArrow=none;html=1;rounded=0;exitX=1;exitY=0.5;exitDx=0;exitDy=0;entryX=0;entryY=0.5;entryDx=0;entryDy=0;" parent="1" source="CE21XfU1R8qpKtoGvkG8-57" target="oji7Lh0gevjrnALUTzUG-86" edge="1">
          <mxGeometry width="50" height="50" relative="1" as="geometry">
            <mxPoint x="-19" y="-2864" as="sourcePoint" />
            <mxPoint x="67" y="-2960" as="targetPoint" />
          </mxGeometry>
        </mxCell>
        <mxCell id="0WpfNRxVd8SMMB5D23eY-175" value="" style="endArrow=none;html=1;rounded=0;exitX=1;exitY=0.5;exitDx=0;exitDy=0;entryX=0;entryY=0.5;entryDx=0;entryDy=0;" parent="1" source="CE21XfU1R8qpKtoGvkG8-59" target="oji7Lh0gevjrnALUTzUG-58" edge="1">
          <mxGeometry width="50" height="50" relative="1" as="geometry">
            <mxPoint x="-126" y="-2785" as="sourcePoint" />
            <mxPoint x="-40" y="-2881" as="targetPoint" />
          </mxGeometry>
        </mxCell>
        <mxCell id="0WpfNRxVd8SMMB5D23eY-176" value="" style="endArrow=none;html=1;rounded=0;exitX=1;exitY=0.5;exitDx=0;exitDy=0;entryX=0;entryY=0.5;entryDx=0;entryDy=0;" parent="1" source="CE21XfU1R8qpKtoGvkG8-59" target="oji7Lh0gevjrnALUTzUG-60" edge="1">
          <mxGeometry width="50" height="50" relative="1" as="geometry">
            <mxPoint x="-116" y="-2775" as="sourcePoint" />
            <mxPoint x="-30" y="-2871" as="targetPoint" />
          </mxGeometry>
        </mxCell>
        <mxCell id="0WpfNRxVd8SMMB5D23eY-177" value="" style="endArrow=none;html=1;rounded=0;exitX=1;exitY=0.5;exitDx=0;exitDy=0;entryX=0;entryY=0.5;entryDx=0;entryDy=0;" parent="1" source="CE21XfU1R8qpKtoGvkG8-59" target="oji7Lh0gevjrnALUTzUG-62" edge="1">
          <mxGeometry width="50" height="50" relative="1" as="geometry">
            <mxPoint x="-106" y="-2765" as="sourcePoint" />
            <mxPoint x="-20" y="-2861" as="targetPoint" />
          </mxGeometry>
        </mxCell>
        <mxCell id="0WpfNRxVd8SMMB5D23eY-178" value="" style="endArrow=none;html=1;rounded=0;exitX=1;exitY=0.5;exitDx=0;exitDy=0;entryX=0;entryY=0.5;entryDx=0;entryDy=0;" parent="1" source="CE21XfU1R8qpKtoGvkG8-59" target="oji7Lh0gevjrnALUTzUG-64" edge="1">
          <mxGeometry width="50" height="50" relative="1" as="geometry">
            <mxPoint x="-96" y="-2755" as="sourcePoint" />
            <mxPoint x="-10" y="-2851" as="targetPoint" />
          </mxGeometry>
        </mxCell>
        <mxCell id="0WpfNRxVd8SMMB5D23eY-179" value="" style="endArrow=none;html=1;rounded=0;exitX=1;exitY=0.5;exitDx=0;exitDy=0;entryX=0;entryY=0.5;entryDx=0;entryDy=0;" parent="1" source="CE21XfU1R8qpKtoGvkG8-59" target="oji7Lh0gevjrnALUTzUG-66" edge="1">
          <mxGeometry width="50" height="50" relative="1" as="geometry">
            <mxPoint x="-86" y="-2745" as="sourcePoint" />
            <mxPoint y="-2841" as="targetPoint" />
          </mxGeometry>
        </mxCell>
        <mxCell id="0WpfNRxVd8SMMB5D23eY-180" value="" style="endArrow=none;html=1;rounded=0;exitX=1;exitY=0.5;exitDx=0;exitDy=0;entryX=0;entryY=0.5;entryDx=0;entryDy=0;" parent="1" source="CE21XfU1R8qpKtoGvkG8-59" target="oji7Lh0gevjrnALUTzUG-68" edge="1">
          <mxGeometry width="50" height="50" relative="1" as="geometry">
            <mxPoint x="-76" y="-2735" as="sourcePoint" />
            <mxPoint x="10" y="-2831" as="targetPoint" />
          </mxGeometry>
        </mxCell>
        <mxCell id="0WpfNRxVd8SMMB5D23eY-181" value="" style="endArrow=none;html=1;rounded=0;exitX=1;exitY=0.5;exitDx=0;exitDy=0;entryX=0;entryY=0.5;entryDx=0;entryDy=0;" parent="1" source="CE21XfU1R8qpKtoGvkG8-59" target="oji7Lh0gevjrnALUTzUG-70" edge="1">
          <mxGeometry width="50" height="50" relative="1" as="geometry">
            <mxPoint x="-66" y="-2725" as="sourcePoint" />
            <mxPoint x="20" y="-2821" as="targetPoint" />
          </mxGeometry>
        </mxCell>
        <mxCell id="0WpfNRxVd8SMMB5D23eY-182" value="" style="endArrow=none;html=1;rounded=0;exitX=1;exitY=0.5;exitDx=0;exitDy=0;entryX=0;entryY=0.5;entryDx=0;entryDy=0;" parent="1" source="CE21XfU1R8qpKtoGvkG8-59" target="oji7Lh0gevjrnALUTzUG-72" edge="1">
          <mxGeometry width="50" height="50" relative="1" as="geometry">
            <mxPoint x="-56" y="-2715" as="sourcePoint" />
            <mxPoint x="30" y="-2811" as="targetPoint" />
          </mxGeometry>
        </mxCell>
        <mxCell id="0WpfNRxVd8SMMB5D23eY-183" value="" style="endArrow=none;html=1;rounded=0;exitX=1;exitY=0.5;exitDx=0;exitDy=0;entryX=0;entryY=0.5;entryDx=0;entryDy=0;" parent="1" source="CE21XfU1R8qpKtoGvkG8-59" target="oji7Lh0gevjrnALUTzUG-74" edge="1">
          <mxGeometry width="50" height="50" relative="1" as="geometry">
            <mxPoint x="-46" y="-2705" as="sourcePoint" />
            <mxPoint x="40" y="-2801" as="targetPoint" />
          </mxGeometry>
        </mxCell>
        <mxCell id="0WpfNRxVd8SMMB5D23eY-184" value="" style="endArrow=none;html=1;rounded=0;exitX=1;exitY=0.5;exitDx=0;exitDy=0;entryX=0;entryY=0.5;entryDx=0;entryDy=0;" parent="1" source="CE21XfU1R8qpKtoGvkG8-59" target="oji7Lh0gevjrnALUTzUG-76" edge="1">
          <mxGeometry width="50" height="50" relative="1" as="geometry">
            <mxPoint x="-36" y="-2695" as="sourcePoint" />
            <mxPoint x="50" y="-2791" as="targetPoint" />
          </mxGeometry>
        </mxCell>
        <mxCell id="0WpfNRxVd8SMMB5D23eY-185" value="" style="endArrow=none;html=1;rounded=0;exitX=1;exitY=0.5;exitDx=0;exitDy=0;entryX=0;entryY=0.5;entryDx=0;entryDy=0;" parent="1" source="CE21XfU1R8qpKtoGvkG8-59" target="oji7Lh0gevjrnALUTzUG-78" edge="1">
          <mxGeometry width="50" height="50" relative="1" as="geometry">
            <mxPoint x="-26" y="-2685" as="sourcePoint" />
            <mxPoint x="60" y="-2781" as="targetPoint" />
          </mxGeometry>
        </mxCell>
        <mxCell id="0WpfNRxVd8SMMB5D23eY-186" value="" style="endArrow=none;html=1;rounded=0;exitX=1;exitY=0.5;exitDx=0;exitDy=0;entryX=0;entryY=0.5;entryDx=0;entryDy=0;" parent="1" source="CE21XfU1R8qpKtoGvkG8-59" target="oji7Lh0gevjrnALUTzUG-80" edge="1">
          <mxGeometry width="50" height="50" relative="1" as="geometry">
            <mxPoint x="-16" y="-2675" as="sourcePoint" />
            <mxPoint x="70" y="-2771" as="targetPoint" />
          </mxGeometry>
        </mxCell>
        <mxCell id="0WpfNRxVd8SMMB5D23eY-187" value="" style="endArrow=none;html=1;rounded=0;exitX=1;exitY=0.5;exitDx=0;exitDy=0;entryX=0;entryY=0.5;entryDx=0;entryDy=0;" parent="1" source="CE21XfU1R8qpKtoGvkG8-59" target="oji7Lh0gevjrnALUTzUG-82" edge="1">
          <mxGeometry width="50" height="50" relative="1" as="geometry">
            <mxPoint x="-6" y="-2665" as="sourcePoint" />
            <mxPoint x="-520" y="-2469" as="targetPoint" />
          </mxGeometry>
        </mxCell>
        <mxCell id="0WpfNRxVd8SMMB5D23eY-188" value="" style="endArrow=none;html=1;rounded=0;exitX=1;exitY=0.5;exitDx=0;exitDy=0;entryX=0;entryY=0.5;entryDx=0;entryDy=0;" parent="1" source="CE21XfU1R8qpKtoGvkG8-59" target="oji7Lh0gevjrnALUTzUG-84" edge="1">
          <mxGeometry width="50" height="50" relative="1" as="geometry">
            <mxPoint x="4" y="-2655" as="sourcePoint" />
            <mxPoint x="90" y="-2751" as="targetPoint" />
          </mxGeometry>
        </mxCell>
        <mxCell id="0WpfNRxVd8SMMB5D23eY-189" value="" style="endArrow=none;html=1;rounded=0;exitX=1;exitY=0.5;exitDx=0;exitDy=0;entryX=0;entryY=0.5;entryDx=0;entryDy=0;" parent="1" source="CE21XfU1R8qpKtoGvkG8-59" target="oji7Lh0gevjrnALUTzUG-86" edge="1">
          <mxGeometry width="50" height="50" relative="1" as="geometry">
            <mxPoint x="14" y="-2645" as="sourcePoint" />
            <mxPoint x="100" y="-2741" as="targetPoint" />
          </mxGeometry>
        </mxCell>
        <mxCell id="0WpfNRxVd8SMMB5D23eY-190" value="" style="endArrow=none;html=1;rounded=0;exitX=1;exitY=0.5;exitDx=0;exitDy=0;entryX=0;entryY=0.5;entryDx=0;entryDy=0;" parent="1" source="oji7Lh0gevjrnALUTzUG-1" target="oji7Lh0gevjrnALUTzUG-58" edge="1">
          <mxGeometry width="50" height="50" relative="1" as="geometry">
            <mxPoint x="-120" y="-2710" as="sourcePoint" />
            <mxPoint x="-34" y="-2806" as="targetPoint" />
          </mxGeometry>
        </mxCell>
        <mxCell id="0WpfNRxVd8SMMB5D23eY-191" value="" style="endArrow=none;html=1;rounded=0;exitX=1;exitY=0.5;exitDx=0;exitDy=0;entryX=0;entryY=0.5;entryDx=0;entryDy=0;" parent="1" source="oji7Lh0gevjrnALUTzUG-1" target="oji7Lh0gevjrnALUTzUG-60" edge="1">
          <mxGeometry width="50" height="50" relative="1" as="geometry">
            <mxPoint x="-110" y="-2700" as="sourcePoint" />
            <mxPoint x="-24" y="-2796" as="targetPoint" />
          </mxGeometry>
        </mxCell>
        <mxCell id="0WpfNRxVd8SMMB5D23eY-192" value="" style="endArrow=none;html=1;rounded=0;exitX=1;exitY=0.5;exitDx=0;exitDy=0;entryX=0;entryY=0.5;entryDx=0;entryDy=0;" parent="1" source="oji7Lh0gevjrnALUTzUG-1" target="oji7Lh0gevjrnALUTzUG-62" edge="1">
          <mxGeometry width="50" height="50" relative="1" as="geometry">
            <mxPoint x="-100" y="-2690" as="sourcePoint" />
            <mxPoint x="-14" y="-2786" as="targetPoint" />
          </mxGeometry>
        </mxCell>
        <mxCell id="0WpfNRxVd8SMMB5D23eY-193" value="" style="endArrow=none;html=1;rounded=0;exitX=1;exitY=0.5;exitDx=0;exitDy=0;entryX=0;entryY=0.5;entryDx=0;entryDy=0;" parent="1" source="oji7Lh0gevjrnALUTzUG-1" target="oji7Lh0gevjrnALUTzUG-64" edge="1">
          <mxGeometry width="50" height="50" relative="1" as="geometry">
            <mxPoint x="-90" y="-2680" as="sourcePoint" />
            <mxPoint x="-4" y="-2776" as="targetPoint" />
          </mxGeometry>
        </mxCell>
        <mxCell id="0WpfNRxVd8SMMB5D23eY-194" value="" style="endArrow=none;html=1;rounded=0;exitX=1;exitY=0.5;exitDx=0;exitDy=0;entryX=0;entryY=0.5;entryDx=0;entryDy=0;" parent="1" source="oji7Lh0gevjrnALUTzUG-1" target="oji7Lh0gevjrnALUTzUG-66" edge="1">
          <mxGeometry width="50" height="50" relative="1" as="geometry">
            <mxPoint x="-80" y="-2670" as="sourcePoint" />
            <mxPoint x="6" y="-2766" as="targetPoint" />
          </mxGeometry>
        </mxCell>
        <mxCell id="0WpfNRxVd8SMMB5D23eY-195" value="" style="endArrow=none;html=1;rounded=0;exitX=1;exitY=0.5;exitDx=0;exitDy=0;entryX=0;entryY=0.5;entryDx=0;entryDy=0;" parent="1" source="oji7Lh0gevjrnALUTzUG-1" target="oji7Lh0gevjrnALUTzUG-68" edge="1">
          <mxGeometry width="50" height="50" relative="1" as="geometry">
            <mxPoint x="-70" y="-2660" as="sourcePoint" />
            <mxPoint x="16" y="-2756" as="targetPoint" />
          </mxGeometry>
        </mxCell>
        <mxCell id="0WpfNRxVd8SMMB5D23eY-196" value="" style="endArrow=none;html=1;rounded=0;exitX=1;exitY=0.5;exitDx=0;exitDy=0;entryX=0;entryY=0.5;entryDx=0;entryDy=0;" parent="1" source="oji7Lh0gevjrnALUTzUG-1" target="oji7Lh0gevjrnALUTzUG-70" edge="1">
          <mxGeometry width="50" height="50" relative="1" as="geometry">
            <mxPoint x="-60" y="-2650" as="sourcePoint" />
            <mxPoint x="26" y="-2746" as="targetPoint" />
          </mxGeometry>
        </mxCell>
        <mxCell id="0WpfNRxVd8SMMB5D23eY-197" value="" style="endArrow=none;html=1;rounded=0;exitX=1;exitY=0.5;exitDx=0;exitDy=0;entryX=0;entryY=0.5;entryDx=0;entryDy=0;" parent="1" source="oji7Lh0gevjrnALUTzUG-1" target="oji7Lh0gevjrnALUTzUG-72" edge="1">
          <mxGeometry width="50" height="50" relative="1" as="geometry">
            <mxPoint x="-50" y="-2640" as="sourcePoint" />
            <mxPoint x="36" y="-2736" as="targetPoint" />
          </mxGeometry>
        </mxCell>
        <mxCell id="0WpfNRxVd8SMMB5D23eY-198" value="" style="endArrow=none;html=1;rounded=0;exitX=1;exitY=0.5;exitDx=0;exitDy=0;entryX=0;entryY=0.5;entryDx=0;entryDy=0;" parent="1" source="oji7Lh0gevjrnALUTzUG-1" target="oji7Lh0gevjrnALUTzUG-74" edge="1">
          <mxGeometry width="50" height="50" relative="1" as="geometry">
            <mxPoint x="-40" y="-2630" as="sourcePoint" />
            <mxPoint x="46" y="-2726" as="targetPoint" />
          </mxGeometry>
        </mxCell>
        <mxCell id="0WpfNRxVd8SMMB5D23eY-199" value="" style="endArrow=none;html=1;rounded=0;exitX=1;exitY=0.5;exitDx=0;exitDy=0;entryX=0;entryY=0.5;entryDx=0;entryDy=0;" parent="1" source="oji7Lh0gevjrnALUTzUG-1" target="oji7Lh0gevjrnALUTzUG-76" edge="1">
          <mxGeometry width="50" height="50" relative="1" as="geometry">
            <mxPoint x="-30" y="-2620" as="sourcePoint" />
            <mxPoint x="56" y="-2716" as="targetPoint" />
          </mxGeometry>
        </mxCell>
        <mxCell id="0WpfNRxVd8SMMB5D23eY-200" value="" style="endArrow=none;html=1;rounded=0;exitX=1;exitY=0.5;exitDx=0;exitDy=0;entryX=0;entryY=0.5;entryDx=0;entryDy=0;" parent="1" source="oji7Lh0gevjrnALUTzUG-1" target="oji7Lh0gevjrnALUTzUG-78" edge="1">
          <mxGeometry width="50" height="50" relative="1" as="geometry">
            <mxPoint x="-20" y="-2610" as="sourcePoint" />
            <mxPoint x="66" y="-2706" as="targetPoint" />
          </mxGeometry>
        </mxCell>
        <mxCell id="0WpfNRxVd8SMMB5D23eY-201" value="" style="endArrow=none;html=1;rounded=0;exitX=1;exitY=0.5;exitDx=0;exitDy=0;entryX=0;entryY=0.5;entryDx=0;entryDy=0;" parent="1" source="oji7Lh0gevjrnALUTzUG-1" target="oji7Lh0gevjrnALUTzUG-80" edge="1">
          <mxGeometry width="50" height="50" relative="1" as="geometry">
            <mxPoint x="-10" y="-2600" as="sourcePoint" />
            <mxPoint x="76" y="-2696" as="targetPoint" />
          </mxGeometry>
        </mxCell>
        <mxCell id="0WpfNRxVd8SMMB5D23eY-202" value="" style="endArrow=none;html=1;rounded=0;exitX=1;exitY=0.5;exitDx=0;exitDy=0;entryX=0;entryY=0.5;entryDx=0;entryDy=0;" parent="1" source="oji7Lh0gevjrnALUTzUG-1" target="oji7Lh0gevjrnALUTzUG-82" edge="1">
          <mxGeometry width="50" height="50" relative="1" as="geometry">
            <mxPoint y="-2590" as="sourcePoint" />
            <mxPoint x="86" y="-2686" as="targetPoint" />
          </mxGeometry>
        </mxCell>
        <mxCell id="0WpfNRxVd8SMMB5D23eY-203" value="" style="endArrow=none;html=1;rounded=0;exitX=1;exitY=0.5;exitDx=0;exitDy=0;entryX=0;entryY=0.5;entryDx=0;entryDy=0;" parent="1" source="oji7Lh0gevjrnALUTzUG-1" target="oji7Lh0gevjrnALUTzUG-84" edge="1">
          <mxGeometry width="50" height="50" relative="1" as="geometry">
            <mxPoint x="10" y="-2580" as="sourcePoint" />
            <mxPoint x="96" y="-2676" as="targetPoint" />
          </mxGeometry>
        </mxCell>
        <mxCell id="0WpfNRxVd8SMMB5D23eY-204" value="" style="endArrow=none;html=1;rounded=0;exitX=1;exitY=0.5;exitDx=0;exitDy=0;entryX=0;entryY=0.5;entryDx=0;entryDy=0;" parent="1" source="oji7Lh0gevjrnALUTzUG-1" target="oji7Lh0gevjrnALUTzUG-86" edge="1">
          <mxGeometry width="50" height="50" relative="1" as="geometry">
            <mxPoint x="20" y="-2570" as="sourcePoint" />
            <mxPoint x="106" y="-2666" as="targetPoint" />
          </mxGeometry>
        </mxCell>
        <mxCell id="0WpfNRxVd8SMMB5D23eY-205" value="" style="endArrow=none;html=1;rounded=0;exitX=1;exitY=0.5;exitDx=0;exitDy=0;entryX=0;entryY=0.5;entryDx=0;entryDy=0;" parent="1" source="oji7Lh0gevjrnALUTzUG-3" target="oji7Lh0gevjrnALUTzUG-58" edge="1">
          <mxGeometry width="50" height="50" relative="1" as="geometry">
            <mxPoint x="-129" y="-2677" as="sourcePoint" />
            <mxPoint x="-43" y="-2773" as="targetPoint" />
          </mxGeometry>
        </mxCell>
        <mxCell id="0WpfNRxVd8SMMB5D23eY-206" value="" style="endArrow=none;html=1;rounded=0;exitX=1;exitY=0.5;exitDx=0;exitDy=0;entryX=0;entryY=0.5;entryDx=0;entryDy=0;" parent="1" source="oji7Lh0gevjrnALUTzUG-3" target="oji7Lh0gevjrnALUTzUG-60" edge="1">
          <mxGeometry width="50" height="50" relative="1" as="geometry">
            <mxPoint x="-119" y="-2667" as="sourcePoint" />
            <mxPoint x="-33" y="-2763" as="targetPoint" />
          </mxGeometry>
        </mxCell>
        <mxCell id="0WpfNRxVd8SMMB5D23eY-207" value="" style="endArrow=none;html=1;rounded=0;exitX=1;exitY=0.5;exitDx=0;exitDy=0;entryX=0;entryY=0.5;entryDx=0;entryDy=0;" parent="1" source="oji7Lh0gevjrnALUTzUG-3" target="oji7Lh0gevjrnALUTzUG-62" edge="1">
          <mxGeometry width="50" height="50" relative="1" as="geometry">
            <mxPoint x="-109" y="-2657" as="sourcePoint" />
            <mxPoint x="-23" y="-2753" as="targetPoint" />
          </mxGeometry>
        </mxCell>
        <mxCell id="0WpfNRxVd8SMMB5D23eY-208" value="" style="endArrow=none;html=1;rounded=0;exitX=1;exitY=0.5;exitDx=0;exitDy=0;entryX=0;entryY=0.5;entryDx=0;entryDy=0;" parent="1" source="oji7Lh0gevjrnALUTzUG-3" target="oji7Lh0gevjrnALUTzUG-64" edge="1">
          <mxGeometry width="50" height="50" relative="1" as="geometry">
            <mxPoint x="-99" y="-2647" as="sourcePoint" />
            <mxPoint x="-13" y="-2743" as="targetPoint" />
          </mxGeometry>
        </mxCell>
        <mxCell id="0WpfNRxVd8SMMB5D23eY-209" value="" style="endArrow=none;html=1;rounded=0;exitX=1;exitY=0.5;exitDx=0;exitDy=0;entryX=0;entryY=0.5;entryDx=0;entryDy=0;" parent="1" source="oji7Lh0gevjrnALUTzUG-3" target="oji7Lh0gevjrnALUTzUG-66" edge="1">
          <mxGeometry width="50" height="50" relative="1" as="geometry">
            <mxPoint x="-89" y="-2637" as="sourcePoint" />
            <mxPoint x="-3" y="-2733" as="targetPoint" />
          </mxGeometry>
        </mxCell>
        <mxCell id="0WpfNRxVd8SMMB5D23eY-210" value="" style="endArrow=none;html=1;rounded=0;exitX=1;exitY=0.5;exitDx=0;exitDy=0;entryX=0;entryY=0.5;entryDx=0;entryDy=0;" parent="1" source="oji7Lh0gevjrnALUTzUG-3" target="oji7Lh0gevjrnALUTzUG-68" edge="1">
          <mxGeometry width="50" height="50" relative="1" as="geometry">
            <mxPoint x="-79" y="-2627" as="sourcePoint" />
            <mxPoint x="7" y="-2723" as="targetPoint" />
          </mxGeometry>
        </mxCell>
        <mxCell id="0WpfNRxVd8SMMB5D23eY-211" value="" style="endArrow=none;html=1;rounded=0;exitX=1;exitY=0.5;exitDx=0;exitDy=0;entryX=0;entryY=0.5;entryDx=0;entryDy=0;" parent="1" source="oji7Lh0gevjrnALUTzUG-3" target="oji7Lh0gevjrnALUTzUG-70" edge="1">
          <mxGeometry width="50" height="50" relative="1" as="geometry">
            <mxPoint x="-69" y="-2617" as="sourcePoint" />
            <mxPoint x="17" y="-2713" as="targetPoint" />
          </mxGeometry>
        </mxCell>
        <mxCell id="0WpfNRxVd8SMMB5D23eY-212" value="" style="endArrow=none;html=1;rounded=0;exitX=1;exitY=0.5;exitDx=0;exitDy=0;entryX=0;entryY=0.5;entryDx=0;entryDy=0;" parent="1" source="oji7Lh0gevjrnALUTzUG-3" target="oji7Lh0gevjrnALUTzUG-72" edge="1">
          <mxGeometry width="50" height="50" relative="1" as="geometry">
            <mxPoint x="-59" y="-2607" as="sourcePoint" />
            <mxPoint x="27" y="-2703" as="targetPoint" />
          </mxGeometry>
        </mxCell>
        <mxCell id="0WpfNRxVd8SMMB5D23eY-213" value="" style="endArrow=none;html=1;rounded=0;exitX=1;exitY=0.5;exitDx=0;exitDy=0;entryX=0;entryY=0.5;entryDx=0;entryDy=0;" parent="1" source="oji7Lh0gevjrnALUTzUG-3" target="oji7Lh0gevjrnALUTzUG-74" edge="1">
          <mxGeometry width="50" height="50" relative="1" as="geometry">
            <mxPoint x="-49" y="-2597" as="sourcePoint" />
            <mxPoint x="37" y="-2693" as="targetPoint" />
          </mxGeometry>
        </mxCell>
        <mxCell id="0WpfNRxVd8SMMB5D23eY-214" value="" style="endArrow=none;html=1;rounded=0;exitX=1;exitY=0.5;exitDx=0;exitDy=0;entryX=0;entryY=0.5;entryDx=0;entryDy=0;" parent="1" source="oji7Lh0gevjrnALUTzUG-3" target="oji7Lh0gevjrnALUTzUG-76" edge="1">
          <mxGeometry width="50" height="50" relative="1" as="geometry">
            <mxPoint x="-39" y="-2587" as="sourcePoint" />
            <mxPoint x="47" y="-2683" as="targetPoint" />
          </mxGeometry>
        </mxCell>
        <mxCell id="0WpfNRxVd8SMMB5D23eY-215" value="" style="endArrow=none;html=1;rounded=0;exitX=1;exitY=0.5;exitDx=0;exitDy=0;entryX=0;entryY=0.5;entryDx=0;entryDy=0;" parent="1" source="oji7Lh0gevjrnALUTzUG-3" target="oji7Lh0gevjrnALUTzUG-78" edge="1">
          <mxGeometry width="50" height="50" relative="1" as="geometry">
            <mxPoint x="-29" y="-2577" as="sourcePoint" />
            <mxPoint x="57" y="-2673" as="targetPoint" />
          </mxGeometry>
        </mxCell>
        <mxCell id="0WpfNRxVd8SMMB5D23eY-216" value="" style="endArrow=none;html=1;rounded=0;exitX=1;exitY=0.5;exitDx=0;exitDy=0;entryX=0;entryY=0.5;entryDx=0;entryDy=0;" parent="1" source="oji7Lh0gevjrnALUTzUG-3" target="oji7Lh0gevjrnALUTzUG-80" edge="1">
          <mxGeometry width="50" height="50" relative="1" as="geometry">
            <mxPoint x="-19" y="-2567" as="sourcePoint" />
            <mxPoint x="67" y="-2663" as="targetPoint" />
          </mxGeometry>
        </mxCell>
        <mxCell id="0WpfNRxVd8SMMB5D23eY-217" value="" style="endArrow=none;html=1;rounded=0;exitX=1;exitY=0.5;exitDx=0;exitDy=0;entryX=0;entryY=0.5;entryDx=0;entryDy=0;" parent="1" source="oji7Lh0gevjrnALUTzUG-3" target="oji7Lh0gevjrnALUTzUG-82" edge="1">
          <mxGeometry width="50" height="50" relative="1" as="geometry">
            <mxPoint x="-9" y="-2557" as="sourcePoint" />
            <mxPoint x="-30" y="-2798" as="targetPoint" />
          </mxGeometry>
        </mxCell>
        <mxCell id="0WpfNRxVd8SMMB5D23eY-218" value="" style="endArrow=none;html=1;rounded=0;exitX=1;exitY=0.5;exitDx=0;exitDy=0;entryX=0;entryY=0.5;entryDx=0;entryDy=0;" parent="1" source="oji7Lh0gevjrnALUTzUG-3" target="oji7Lh0gevjrnALUTzUG-84" edge="1">
          <mxGeometry width="50" height="50" relative="1" as="geometry">
            <mxPoint x="1" y="-2547" as="sourcePoint" />
            <mxPoint x="87" y="-2643" as="targetPoint" />
          </mxGeometry>
        </mxCell>
        <mxCell id="0WpfNRxVd8SMMB5D23eY-219" value="" style="endArrow=none;html=1;rounded=0;exitX=1;exitY=0.5;exitDx=0;exitDy=0;entryX=0;entryY=0.5;entryDx=0;entryDy=0;" parent="1" source="oji7Lh0gevjrnALUTzUG-3" target="oji7Lh0gevjrnALUTzUG-86" edge="1">
          <mxGeometry width="50" height="50" relative="1" as="geometry">
            <mxPoint x="11" y="-2537" as="sourcePoint" />
            <mxPoint x="97" y="-2633" as="targetPoint" />
          </mxGeometry>
        </mxCell>
        <mxCell id="0WpfNRxVd8SMMB5D23eY-220" value="" style="endArrow=none;html=1;rounded=0;exitX=1;exitY=0.5;exitDx=0;exitDy=0;entryX=0;entryY=0.5;entryDx=0;entryDy=0;" parent="1" source="oji7Lh0gevjrnALUTzUG-5" target="oji7Lh0gevjrnALUTzUG-58" edge="1">
          <mxGeometry width="50" height="50" relative="1" as="geometry">
            <mxPoint x="-140" y="-2634" as="sourcePoint" />
            <mxPoint x="-54" y="-2730" as="targetPoint" />
          </mxGeometry>
        </mxCell>
        <mxCell id="0WpfNRxVd8SMMB5D23eY-221" value="" style="endArrow=none;html=1;rounded=0;exitX=1;exitY=0.5;exitDx=0;exitDy=0;entryX=0;entryY=0.5;entryDx=0;entryDy=0;" parent="1" source="oji7Lh0gevjrnALUTzUG-5" target="oji7Lh0gevjrnALUTzUG-60" edge="1">
          <mxGeometry width="50" height="50" relative="1" as="geometry">
            <mxPoint x="-130" y="-2624" as="sourcePoint" />
            <mxPoint x="-44" y="-2720" as="targetPoint" />
          </mxGeometry>
        </mxCell>
        <mxCell id="0WpfNRxVd8SMMB5D23eY-222" value="" style="endArrow=none;html=1;rounded=0;exitX=1;exitY=0.5;exitDx=0;exitDy=0;entryX=0;entryY=0.5;entryDx=0;entryDy=0;" parent="1" source="oji7Lh0gevjrnALUTzUG-5" target="oji7Lh0gevjrnALUTzUG-62" edge="1">
          <mxGeometry width="50" height="50" relative="1" as="geometry">
            <mxPoint x="-120" y="-2614" as="sourcePoint" />
            <mxPoint x="-75" y="-3273" as="targetPoint" />
          </mxGeometry>
        </mxCell>
        <mxCell id="0WpfNRxVd8SMMB5D23eY-223" value="" style="endArrow=none;html=1;rounded=0;exitX=1;exitY=0.5;exitDx=0;exitDy=0;entryX=0;entryY=0.5;entryDx=0;entryDy=0;" parent="1" source="oji7Lh0gevjrnALUTzUG-5" target="oji7Lh0gevjrnALUTzUG-64" edge="1">
          <mxGeometry width="50" height="50" relative="1" as="geometry">
            <mxPoint x="-110" y="-2604" as="sourcePoint" />
            <mxPoint x="-24" y="-2700" as="targetPoint" />
          </mxGeometry>
        </mxCell>
        <mxCell id="0WpfNRxVd8SMMB5D23eY-224" value="" style="endArrow=none;html=1;rounded=0;exitX=1;exitY=0.5;exitDx=0;exitDy=0;entryX=0;entryY=0.5;entryDx=0;entryDy=0;" parent="1" source="oji7Lh0gevjrnALUTzUG-5" target="oji7Lh0gevjrnALUTzUG-66" edge="1">
          <mxGeometry width="50" height="50" relative="1" as="geometry">
            <mxPoint x="-100" y="-2594" as="sourcePoint" />
            <mxPoint x="-14" y="-2690" as="targetPoint" />
          </mxGeometry>
        </mxCell>
        <mxCell id="0WpfNRxVd8SMMB5D23eY-225" value="" style="endArrow=none;html=1;rounded=0;exitX=1;exitY=0.5;exitDx=0;exitDy=0;entryX=0;entryY=0.5;entryDx=0;entryDy=0;" parent="1" source="oji7Lh0gevjrnALUTzUG-5" target="oji7Lh0gevjrnALUTzUG-68" edge="1">
          <mxGeometry width="50" height="50" relative="1" as="geometry">
            <mxPoint x="-90" y="-2584" as="sourcePoint" />
            <mxPoint x="-4" y="-2680" as="targetPoint" />
          </mxGeometry>
        </mxCell>
        <mxCell id="0WpfNRxVd8SMMB5D23eY-226" value="" style="endArrow=none;html=1;rounded=0;exitX=1;exitY=0.5;exitDx=0;exitDy=0;entryX=0;entryY=0.5;entryDx=0;entryDy=0;" parent="1" source="oji7Lh0gevjrnALUTzUG-5" target="oji7Lh0gevjrnALUTzUG-70" edge="1">
          <mxGeometry width="50" height="50" relative="1" as="geometry">
            <mxPoint x="-80" y="-2574" as="sourcePoint" />
            <mxPoint x="6" y="-2670" as="targetPoint" />
          </mxGeometry>
        </mxCell>
        <mxCell id="0WpfNRxVd8SMMB5D23eY-227" value="" style="endArrow=none;html=1;rounded=0;exitX=1;exitY=0.5;exitDx=0;exitDy=0;entryX=0;entryY=0.5;entryDx=0;entryDy=0;" parent="1" source="oji7Lh0gevjrnALUTzUG-5" target="oji7Lh0gevjrnALUTzUG-72" edge="1">
          <mxGeometry width="50" height="50" relative="1" as="geometry">
            <mxPoint x="-70" y="-2564" as="sourcePoint" />
            <mxPoint x="16" y="-2660" as="targetPoint" />
          </mxGeometry>
        </mxCell>
        <mxCell id="0WpfNRxVd8SMMB5D23eY-228" value="" style="endArrow=none;html=1;rounded=0;exitX=1;exitY=0.5;exitDx=0;exitDy=0;entryX=0;entryY=0.5;entryDx=0;entryDy=0;" parent="1" source="oji7Lh0gevjrnALUTzUG-5" target="oji7Lh0gevjrnALUTzUG-74" edge="1">
          <mxGeometry width="50" height="50" relative="1" as="geometry">
            <mxPoint x="-60" y="-2554" as="sourcePoint" />
            <mxPoint x="26" y="-2650" as="targetPoint" />
          </mxGeometry>
        </mxCell>
        <mxCell id="0WpfNRxVd8SMMB5D23eY-229" value="" style="endArrow=none;html=1;rounded=0;exitX=1;exitY=0.5;exitDx=0;exitDy=0;entryX=0;entryY=0.5;entryDx=0;entryDy=0;" parent="1" source="oji7Lh0gevjrnALUTzUG-5" target="oji7Lh0gevjrnALUTzUG-76" edge="1">
          <mxGeometry width="50" height="50" relative="1" as="geometry">
            <mxPoint x="-50" y="-2544" as="sourcePoint" />
            <mxPoint x="36" y="-2640" as="targetPoint" />
          </mxGeometry>
        </mxCell>
        <mxCell id="0WpfNRxVd8SMMB5D23eY-230" value="" style="endArrow=none;html=1;rounded=0;exitX=1;exitY=0.5;exitDx=0;exitDy=0;entryX=0;entryY=0.5;entryDx=0;entryDy=0;" parent="1" source="oji7Lh0gevjrnALUTzUG-5" target="oji7Lh0gevjrnALUTzUG-78" edge="1">
          <mxGeometry width="50" height="50" relative="1" as="geometry">
            <mxPoint x="-40" y="-2534" as="sourcePoint" />
            <mxPoint x="46" y="-2630" as="targetPoint" />
          </mxGeometry>
        </mxCell>
        <mxCell id="0WpfNRxVd8SMMB5D23eY-231" value="" style="endArrow=none;html=1;rounded=0;exitX=1;exitY=0.5;exitDx=0;exitDy=0;entryX=0;entryY=0.5;entryDx=0;entryDy=0;" parent="1" source="oji7Lh0gevjrnALUTzUG-5" target="oji7Lh0gevjrnALUTzUG-80" edge="1">
          <mxGeometry width="50" height="50" relative="1" as="geometry">
            <mxPoint x="-30" y="-2524" as="sourcePoint" />
            <mxPoint x="56" y="-2620" as="targetPoint" />
          </mxGeometry>
        </mxCell>
        <mxCell id="0WpfNRxVd8SMMB5D23eY-232" value="" style="endArrow=none;html=1;rounded=0;exitX=1;exitY=0.5;exitDx=0;exitDy=0;entryX=0;entryY=0.5;entryDx=0;entryDy=0;" parent="1" source="oji7Lh0gevjrnALUTzUG-5" target="oji7Lh0gevjrnALUTzUG-82" edge="1">
          <mxGeometry width="50" height="50" relative="1" as="geometry">
            <mxPoint x="-20" y="-2514" as="sourcePoint" />
            <mxPoint x="66" y="-2610" as="targetPoint" />
          </mxGeometry>
        </mxCell>
        <mxCell id="0WpfNRxVd8SMMB5D23eY-233" value="" style="endArrow=none;html=1;rounded=0;exitX=1;exitY=0.5;exitDx=0;exitDy=0;entryX=0;entryY=0.5;entryDx=0;entryDy=0;" parent="1" source="oji7Lh0gevjrnALUTzUG-5" target="oji7Lh0gevjrnALUTzUG-86" edge="1">
          <mxGeometry width="50" height="50" relative="1" as="geometry">
            <mxPoint x="-10" y="-2504" as="sourcePoint" />
            <mxPoint x="76" y="-2600" as="targetPoint" />
          </mxGeometry>
        </mxCell>
        <mxCell id="0WpfNRxVd8SMMB5D23eY-234" value="" style="endArrow=none;html=1;rounded=0;exitX=1;exitY=0.5;exitDx=0;exitDy=0;entryX=0;entryY=0.5;entryDx=0;entryDy=0;" parent="1" source="oji7Lh0gevjrnALUTzUG-5" target="oji7Lh0gevjrnALUTzUG-84" edge="1">
          <mxGeometry width="50" height="50" relative="1" as="geometry">
            <mxPoint y="-2494" as="sourcePoint" />
            <mxPoint x="95" y="-2729" as="targetPoint" />
          </mxGeometry>
        </mxCell>
        <mxCell id="0WpfNRxVd8SMMB5D23eY-235" value="" style="endArrow=none;html=1;rounded=0;exitX=1;exitY=0.5;exitDx=0;exitDy=0;entryX=0;entryY=0.5;entryDx=0;entryDy=0;" parent="1" source="oji7Lh0gevjrnALUTzUG-7" target="oji7Lh0gevjrnALUTzUG-58" edge="1">
          <mxGeometry width="50" height="50" relative="1" as="geometry">
            <mxPoint x="-145" y="-2557" as="sourcePoint" />
            <mxPoint x="-59" y="-2653" as="targetPoint" />
          </mxGeometry>
        </mxCell>
        <mxCell id="0WpfNRxVd8SMMB5D23eY-236" value="" style="endArrow=none;html=1;rounded=0;exitX=1;exitY=0.5;exitDx=0;exitDy=0;entryX=0;entryY=0.5;entryDx=0;entryDy=0;" parent="1" source="oji7Lh0gevjrnALUTzUG-7" target="oji7Lh0gevjrnALUTzUG-60" edge="1">
          <mxGeometry width="50" height="50" relative="1" as="geometry">
            <mxPoint x="-135" y="-2547" as="sourcePoint" />
            <mxPoint x="-49" y="-2643" as="targetPoint" />
          </mxGeometry>
        </mxCell>
        <mxCell id="0WpfNRxVd8SMMB5D23eY-237" value="" style="endArrow=none;html=1;rounded=0;exitX=1;exitY=0.5;exitDx=0;exitDy=0;entryX=0;entryY=0.5;entryDx=0;entryDy=0;" parent="1" source="oji7Lh0gevjrnALUTzUG-7" target="oji7Lh0gevjrnALUTzUG-62" edge="1">
          <mxGeometry width="50" height="50" relative="1" as="geometry">
            <mxPoint x="-125" y="-2537" as="sourcePoint" />
            <mxPoint x="-39" y="-2633" as="targetPoint" />
          </mxGeometry>
        </mxCell>
        <mxCell id="0WpfNRxVd8SMMB5D23eY-238" value="" style="endArrow=none;html=1;rounded=0;exitX=1;exitY=0.5;exitDx=0;exitDy=0;entryX=0;entryY=0.5;entryDx=0;entryDy=0;" parent="1" source="oji7Lh0gevjrnALUTzUG-7" target="oji7Lh0gevjrnALUTzUG-64" edge="1">
          <mxGeometry width="50" height="50" relative="1" as="geometry">
            <mxPoint x="-69" y="-2560" as="sourcePoint" />
            <mxPoint x="17" y="-2656" as="targetPoint" />
          </mxGeometry>
        </mxCell>
        <mxCell id="0WpfNRxVd8SMMB5D23eY-239" value="" style="endArrow=none;html=1;rounded=0;exitX=1;exitY=0.5;exitDx=0;exitDy=0;entryX=0;entryY=0.5;entryDx=0;entryDy=0;" parent="1" source="oji7Lh0gevjrnALUTzUG-7" target="oji7Lh0gevjrnALUTzUG-66" edge="1">
          <mxGeometry width="50" height="50" relative="1" as="geometry">
            <mxPoint x="-105" y="-2517" as="sourcePoint" />
            <mxPoint x="-19" y="-2613" as="targetPoint" />
          </mxGeometry>
        </mxCell>
        <mxCell id="0WpfNRxVd8SMMB5D23eY-240" value="" style="endArrow=none;html=1;rounded=0;exitX=1;exitY=0.5;exitDx=0;exitDy=0;entryX=0;entryY=0.5;entryDx=0;entryDy=0;" parent="1" source="oji7Lh0gevjrnALUTzUG-7" target="oji7Lh0gevjrnALUTzUG-68" edge="1">
          <mxGeometry width="50" height="50" relative="1" as="geometry">
            <mxPoint x="-95" y="-2507" as="sourcePoint" />
            <mxPoint x="5" y="-3044" as="targetPoint" />
          </mxGeometry>
        </mxCell>
        <mxCell id="0WpfNRxVd8SMMB5D23eY-242" value="" style="endArrow=none;html=1;rounded=0;exitX=1;exitY=0.5;exitDx=0;exitDy=0;entryX=0;entryY=0.5;entryDx=0;entryDy=0;" parent="1" source="oji7Lh0gevjrnALUTzUG-7" target="oji7Lh0gevjrnALUTzUG-70" edge="1">
          <mxGeometry width="50" height="50" relative="1" as="geometry">
            <mxPoint x="-85" y="-2497" as="sourcePoint" />
            <mxPoint x="1" y="-2593" as="targetPoint" />
          </mxGeometry>
        </mxCell>
        <mxCell id="0WpfNRxVd8SMMB5D23eY-243" value="" style="endArrow=none;html=1;rounded=0;exitX=1;exitY=0.5;exitDx=0;exitDy=0;entryX=0;entryY=0.5;entryDx=0;entryDy=0;" parent="1" source="oji7Lh0gevjrnALUTzUG-7" target="oji7Lh0gevjrnALUTzUG-72" edge="1">
          <mxGeometry width="50" height="50" relative="1" as="geometry">
            <mxPoint x="-75" y="-2487" as="sourcePoint" />
            <mxPoint x="11" y="-2583" as="targetPoint" />
          </mxGeometry>
        </mxCell>
        <mxCell id="0WpfNRxVd8SMMB5D23eY-244" value="" style="endArrow=none;html=1;rounded=0;exitX=1;exitY=0.5;exitDx=0;exitDy=0;entryX=0;entryY=0.5;entryDx=0;entryDy=0;" parent="1" source="oji7Lh0gevjrnALUTzUG-7" target="oji7Lh0gevjrnALUTzUG-74" edge="1">
          <mxGeometry width="50" height="50" relative="1" as="geometry">
            <mxPoint x="-65" y="-2477" as="sourcePoint" />
            <mxPoint x="21" y="-2573" as="targetPoint" />
          </mxGeometry>
        </mxCell>
        <mxCell id="0WpfNRxVd8SMMB5D23eY-245" value="" style="endArrow=none;html=1;rounded=0;exitX=1;exitY=0.5;exitDx=0;exitDy=0;entryX=0;entryY=0.5;entryDx=0;entryDy=0;" parent="1" source="oji7Lh0gevjrnALUTzUG-7" target="oji7Lh0gevjrnALUTzUG-76" edge="1">
          <mxGeometry width="50" height="50" relative="1" as="geometry">
            <mxPoint x="-55" y="-2467" as="sourcePoint" />
            <mxPoint x="31" y="-2563" as="targetPoint" />
          </mxGeometry>
        </mxCell>
        <mxCell id="0WpfNRxVd8SMMB5D23eY-246" value="" style="endArrow=none;html=1;rounded=0;exitX=1;exitY=0.5;exitDx=0;exitDy=0;entryX=0;entryY=0.5;entryDx=0;entryDy=0;" parent="1" source="oji7Lh0gevjrnALUTzUG-7" target="oji7Lh0gevjrnALUTzUG-78" edge="1">
          <mxGeometry width="50" height="50" relative="1" as="geometry">
            <mxPoint x="-45" y="-2457" as="sourcePoint" />
            <mxPoint x="41" y="-2553" as="targetPoint" />
          </mxGeometry>
        </mxCell>
        <mxCell id="0WpfNRxVd8SMMB5D23eY-247" value="" style="endArrow=none;html=1;rounded=0;exitX=1;exitY=0.5;exitDx=0;exitDy=0;entryX=0;entryY=0.5;entryDx=0;entryDy=0;" parent="1" source="oji7Lh0gevjrnALUTzUG-7" target="oji7Lh0gevjrnALUTzUG-80" edge="1">
          <mxGeometry width="50" height="50" relative="1" as="geometry">
            <mxPoint x="-35" y="-2447" as="sourcePoint" />
            <mxPoint x="51" y="-2543" as="targetPoint" />
          </mxGeometry>
        </mxCell>
        <mxCell id="0WpfNRxVd8SMMB5D23eY-248" value="" style="endArrow=none;html=1;rounded=0;exitX=1;exitY=0.5;exitDx=0;exitDy=0;entryX=0;entryY=0.5;entryDx=0;entryDy=0;" parent="1" source="oji7Lh0gevjrnALUTzUG-7" target="oji7Lh0gevjrnALUTzUG-82" edge="1">
          <mxGeometry width="50" height="50" relative="1" as="geometry">
            <mxPoint x="-25" y="-2437" as="sourcePoint" />
            <mxPoint x="61" y="-2533" as="targetPoint" />
          </mxGeometry>
        </mxCell>
        <mxCell id="0WpfNRxVd8SMMB5D23eY-249" value="" style="endArrow=none;html=1;rounded=0;exitX=1;exitY=0.5;exitDx=0;exitDy=0;entryX=0;entryY=0.5;entryDx=0;entryDy=0;" parent="1" source="oji7Lh0gevjrnALUTzUG-7" target="oji7Lh0gevjrnALUTzUG-84" edge="1">
          <mxGeometry width="50" height="50" relative="1" as="geometry">
            <mxPoint x="-15" y="-2427" as="sourcePoint" />
            <mxPoint x="71" y="-2523" as="targetPoint" />
          </mxGeometry>
        </mxCell>
        <mxCell id="0WpfNRxVd8SMMB5D23eY-250" value="" style="endArrow=none;html=1;rounded=0;exitX=1;exitY=0.5;exitDx=0;exitDy=0;entryX=0;entryY=0.5;entryDx=0;entryDy=0;" parent="1" source="oji7Lh0gevjrnALUTzUG-7" target="oji7Lh0gevjrnALUTzUG-86" edge="1">
          <mxGeometry width="50" height="50" relative="1" as="geometry">
            <mxPoint x="-5" y="-2417" as="sourcePoint" />
            <mxPoint x="23" y="-2696" as="targetPoint" />
          </mxGeometry>
        </mxCell>
      </root>
    </mxGraphModel>
  </diagram>
</mxfile>
